<?xml version="1.0" encoding="UTF-8"?>
<svg width="1280px" height="640px" viewBox="0 0 1280 640" version="1.1" xmlns="http://www.w3.org/2000/svg" xmlns:xlink="http://www.w3.org/1999/xlink">
    <title>Info</title>
    <defs>
        <rect id="path-1" x="0" y="0" width="1600" height="700"></rect>
        <linearGradient x1="64.9438679%" y1="64.4924335%" x2="100%" y2="31.6349165%" id="linearGradient-3">
            <stop stop-color="#FFB200" stop-opacity="0.05" offset="0%"></stop>
            <stop stop-color="#FFB200" stop-opacity="0.4" offset="100%"></stop>
        </linearGradient>
        <path d="M0,730.295288 C100.143555,599.912638 230.143555,513.816976 390,472.008301 C629.784668,409.295288 592.029419,283.351562 810,152.984741 C955.313721,66.073527 1086.98039,15.0786133 1205,0 L1205,730.295288 L0,730.295288 Z" id="path-4"></path>
    </defs>
    <g id="Info" stroke="none" stroke-width="1" fill="none" fill-rule="evenodd">
        <rect fill="#FFFFFF" x="0" y="0" width="1280" height="640"></rect>
        <g id="Group-2">
            <mask id="mask-2" fill="white">
                <use xlink:href="#path-1"></use>
            </mask>
            <use id="bg" fill="#0A0F1D" xlink:href="#path-1"></use>
            <g id="graph" mask="url(#mask-2)">
                <g transform="translate(395.000000, -75.295288)">
                    <g id="Group" stroke="none" stroke-width="1" fill="none">
                        <mask id="mask-5" fill="white">
                            <use xlink:href="#path-4"></use>
                        </mask>
                        <use id="Path" stroke="#FFB200" stroke-width="2" fill="url(#linearGradient-3)" xlink:href="#path-4"></use>
                        <g id="lines" opacity="0.1" mask="url(#mask-5)" fill="#FFFFFF">
                            <g transform="translate(52.000000, 28.295288)" id="Rectangle">
                                <rect x="812" y="0" width="1" height="729"></rect>
                                <rect x="631" y="0" width="1" height="729"></rect>
                                <rect x="450" y="0" width="1" height="729"></rect>
                                <rect x="269" y="0" width="1" height="729"></rect>
                                <rect x="88" y="0" width="1" height="729"></rect>
                                <rect x="0" y="506.704712" width="1337" height="1"></rect>
                                <rect x="0" y="205.704712" width="1337" height="1"></rect>
                            </g>
                        </g>
                    </g>
                    <circle id="Oval" stroke="#FFB200" stroke-width="2" fill="#101218" cx="582" cy="365.295288" r="8"></circle>
                    <circle id="Oval" stroke="#FFB200" stroke-width="2" fill="#101218" cx="835" cy="138.295288" r="8"></circle>
                    <circle id="Oval" stroke="#FFB200" stroke-width="2" fill="#101218" cx="282" cy="507.295288" r="8"></circle>
                    <circle id="Oval" stroke="#FFB200" stroke-width="2" fill="#101218" cx="60" cy="660.295288" r="8"></circle>
                </g>
            </g>
        </g>
        <g id="Branding/Pay-off" transform="translate(329.369863, 253.753425)" fill="#FFFFFF" fill-rule="nonzero">
            <path d="M13.9904159,3.39861519 L13.9244234,3.39861519 C13.9244234,3.39861519 13.5614645,5.37839103 13.1655093,6.86322291 L8.74400996,23.1963736 L6.00532005,23.1963736 L0,-2.84217094e-14 L2.37573101,-2.84217094e-14 L6.86322291,18.0159601 C7.16018929,19.2038257 7.39116314,20.49068 7.39116314,20.49068 L7.45715567,20.49068 C7.49015193,20.49068 7.65513325,19.2038257 7.98509589,18.0159601 L12.868543,-2.84217094e-14 L15.0462964,-2.84217094e-14 L19.9297435,18.0159601 C20.2597061,19.2038257 20.4246874,20.49068 20.4576837,20.49068 L20.5236762,20.49068 C20.5236762,20.49068 20.7546501,19.2038257 21.0516164,18.0159601 L25.7040897,-2.84217094e-14 L28.0798207,-2.84217094e-14 L21.9095193,23.1963736 L19.1708294,23.1963736 L14.74933,6.86322291 C14.3533748,5.37839103 13.9904159,3.39861519 13.9904159,3.39861519 Z M29.2586872,14.8153225 C29.2586872,9.8988792 33.1852426,6.20329763 38.0356934,6.20329763 C42.8861442,6.20329763 46.8126996,9.8988792 46.8126996,14.8153225 C46.8126996,19.8307547 42.8861442,23.5923288 38.0356934,23.5923288 C33.1852426,23.5923288 29.2586872,19.8307547 29.2586872,14.8153225 Z M31.5684257,14.8153225 C31.5684257,18.6758854 34.4720969,21.5795567 38.0356934,21.5795567 C41.5992899,21.5795567 44.5029612,18.6758854 44.5029612,14.8153225 C44.5029612,11.0537484 41.5992899,8.249066 38.0356934,8.249066 C34.4720969,8.249066 31.5684257,11.0537484 31.5684257,14.8153225 Z M50.1033271,23.1963736 L50.1033271,6.5992528 L52.3140768,6.5992528 L52.3140768,9.5359203 C52.3140768,10.2618381 52.2480842,10.8557709 52.2480842,10.8557709 L52.3140768,10.8557709 C53.1059871,8.34805479 54.9537779,6.43427148 57.5604827,6.43427148 C58.0224304,6.43427148 58.4513819,6.53326027 58.4513819,6.53326027 L58.4513819,8.74400996 C58.4513819,8.74400996 58.0554267,8.67801743 57.6264753,8.67801743 C55.2837405,8.67801743 53.5349385,10.5258082 52.8090207,12.9675318 C52.4790581,14.0234122 52.347073,15.1452852 52.347073,16.2011656 L52.347073,23.1963736 L50.1033271,23.1963736 Z M59.7292372,14.8813151 C59.7292372,9.63490909 62.830886,6.20329763 67.1863928,6.20329763 C71.2119371,6.20329763 72.5977801,9.33794271 72.5977801,9.33794271 L72.6637727,9.33794271 C72.6637727,9.33794271 72.5977801,8.77700623 72.5977801,8.08408468 L72.5977801,-2.84217094e-14 L74.8415261,-2.84217094e-14 L74.8415261,23.1963736 L72.6637727,23.1963736 L72.6637727,21.4475716 C72.6637727,20.7216538 72.7297652,20.2597061 72.7297652,20.2597061 L72.6637727,20.2597061 C72.6637727,20.2597061 71.3109258,23.5923288 66.955419,23.5923288 C62.5009234,23.5923288 59.7292372,20.0287323 59.7292372,14.8813151 Z M62.0389757,14.8813151 C62.0389757,18.9728518 64.1837328,21.5795567 67.2853816,21.5795567 C70.0570678,21.5795567 72.6637727,19.5997808 72.6637727,14.8813151 C72.6637727,11.5156961 70.9479669,8.21606974 67.3843704,8.21606974 C64.4477029,8.21606974 62.0389757,10.6907895 62.0389757,14.8813151 Z M80.0129406,23.1963736 L80.0129406,-2.84217094e-14 L88.0310327,-2.84217094e-14 C92.188562,-2.84217094e-14 95.191222,2.70569365 95.191222,6.99520797 C95.191222,11.3177186 92.188562,14.0894047 88.0310327,14.0894047 L82.2896828,14.0894047 L82.2896828,23.1963736 L80.0129406,23.1963736 Z M82.2896828,12.0436364 L87.7340663,12.0436364 C90.8357152,12.0436364 92.8484873,10.1628493 92.8484873,6.99520797 C92.8484873,3.86056289 90.8357152,2.04576837 87.7670626,2.04576837 L82.2896828,2.04576837 L82.2896828,12.0436364 Z M98.1848831,23.1963736 L98.1848831,6.5992528 L100.395633,6.5992528 L100.395633,9.5359203 C100.395633,10.2618381 100.32964,10.8557709 100.32964,10.8557709 L100.395633,10.8557709 C101.187543,8.34805479 103.035334,6.43427148 105.642039,6.43427148 C106.103986,6.43427148 106.532938,6.53326027 106.532938,6.53326027 L106.532938,8.74400996 C106.532938,8.74400996 106.136983,8.67801743 105.708031,8.67801743 C103.365297,8.67801743 101.616495,10.5258082 100.890577,12.9675318 C100.560614,14.0234122 100.428629,15.1452852 100.428629,16.2011656 L100.428629,23.1963736 L98.1848831,23.1963736 Z M107.678808,14.9143113 C107.678808,9.46992777 111.37439,6.20329763 115.861882,6.20329763 C120.448362,6.20329763 122.791097,9.73389788 122.791097,13.8584309 C122.791097,14.2543861 122.725104,15.0133001 122.725104,15.0133001 L109.988547,15.0133001 C110.087535,19.2698182 112.991207,21.5795567 116.422818,21.5795567 C119.458474,21.5795567 121.471246,19.5667846 121.471246,19.5667846 L122.494131,21.2825903 C122.494131,21.2825903 120.085403,23.5923288 116.356826,23.5923288 C111.407386,23.5923288 107.678808,20.0287323 107.678808,14.9143113 Z M110.087535,13.1655093 L120.514355,13.1655093 C120.38237,9.70090162 118.270609,8.08408468 115.795889,8.08408468 C113.024203,8.08408468 110.615476,9.83288667 110.087535,13.1655093 Z M124.827866,21.1836015 L126.048728,19.5667846 C126.048728,19.5667846 127.896519,21.5795567 130.998168,21.5795567 C132.779966,21.5795567 134.33079,20.6886575 134.33079,18.9398555 C134.33079,15.3102665 125.388803,16.2011656 125.388803,10.7897783 C125.388803,7.82011457 128.0615,6.20329763 131.06416,6.20329763 C134.561764,6.20329763 136.178581,8.01809215 136.178581,8.01809215 L135.155697,9.73389788 C135.155697,9.73389788 133.736858,8.21606974 130.998168,8.21606974 C129.315358,8.21606974 127.698541,8.94198755 127.698541,10.7897783 C127.698541,14.4523636 136.640529,13.4624757 136.640529,18.9398555 C136.640529,21.6455492 134.297794,23.5923288 130.965172,23.5923288 C126.939627,23.5923288 124.827866,21.1836015 124.827866,21.1836015 Z M138.545313,21.1836015 L139.766175,19.5667846 C139.766175,19.5667846 141.613966,21.5795567 144.715615,21.5795567 C146.497413,21.5795567 148.048237,20.6886575 148.048237,18.9398555 C148.048237,15.3102665 139.10625,16.2011656 139.10625,10.7897783 C139.10625,7.82011457 141.778947,6.20329763 144.781607,6.20329763 C148.279211,6.20329763 149.896028,8.01809215 149.896028,8.01809215 L148.873144,9.73389788 C148.873144,9.73389788 147.454305,8.21606974 144.715615,8.21606974 C143.032805,8.21606974 141.415988,8.94198755 141.415988,10.7897783 C141.415988,14.4523636 150.357976,13.4624757 150.357976,18.9398555 C150.357976,21.6455492 148.015241,23.5923288 144.682618,23.5923288 C140.657074,23.5923288 138.545313,21.1836015 138.545313,21.1836015 Z M164.000431,23.1963736 L165.122304,16.7621021 L160.436835,16.7621021 L160.766797,14.9143113 L165.41927,14.9143113 L166.57414,8.44704359 L161.921666,8.44704359 L162.218633,6.5992528 L166.904102,6.5992528 L168.058972,-2.84217094e-14 L170.071744,-2.84217094e-14 L168.916874,6.5992528 L174.625228,6.5992528 L175.780097,-2.84217094e-14 L177.792869,-2.84217094e-14 L176.638,6.5992528 L181.257477,6.5992528 L180.927515,8.44704359 L176.308038,8.44704359 L175.186165,14.9143113 L179.772645,14.9143113 L179.475679,16.7621021 L174.856202,16.7621021 L173.734329,23.1963736 L171.721557,23.1963736 L172.84343,16.7621021 L167.135076,16.7621021 L166.013203,23.1963736 L164.000431,23.1963736 Z M167.465039,14.9143113 L173.140396,14.9143113 L174.295265,8.44704359 L168.586912,8.44704359 L167.465039,14.9143113 Z M183.723198,23.1963736 L183.723198,21.1506052 L188.936608,21.1506052 L188.936608,4.124533 C188.936608,3.46460772 188.969604,2.8376787 188.969604,2.8376787 L188.903611,2.8376787 C188.903611,2.8376787 188.672638,3.33262267 187.748742,4.22352179 L185.274022,6.69824159 L183.822187,5.21340971 L189.068593,-2.84217094e-14 L191.180354,-2.84217094e-14 L191.180354,21.1506052 L196.294775,21.1506052 L196.294775,23.1963736 L183.723198,23.1963736 Z M207.033559,29.7956264 L207.033559,6.5992528 L209.178316,6.5992528 L209.178316,8.21606974 C209.178316,8.94198755 209.112323,9.50292403 209.112323,9.50292403 L209.178316,9.50292403 C209.178316,9.50292403 210.531163,6.20329763 214.919666,6.20329763 C219.374161,6.20329763 222.145848,9.76689415 222.145848,14.9143113 C222.145848,20.1607173 219.011203,23.5923288 214.721688,23.5923288 C210.72914,23.5923288 209.277305,20.4246874 209.277305,20.4246874 L209.211312,20.4246874 C209.211312,20.4246874 209.277305,21.0186202 209.277305,21.876523 L209.277305,29.7956264 L207.033559,29.7956264 Z M209.211312,14.9473076 C209.211312,18.2799303 211.059103,21.6125529 214.490714,21.6125529 C217.427382,21.6125529 219.836109,19.1378331 219.836109,14.9143113 C219.836109,10.8557709 217.691352,8.249066 214.589703,8.249066 C211.818017,8.249066 209.211312,10.2288418 209.211312,14.9473076 Z M224.215613,18.6758854 C224.215613,13.0665205 231.507788,12.9345355 234.378463,12.9345355 L235.302358,12.9345355 L235.302358,12.5055841 C235.302358,9.30494645 233.553556,8.21606974 231.177825,8.21606974 C228.439135,8.21606974 226.492355,9.79989041 226.492355,9.79989041 L225.436475,8.08408468 C225.436475,8.08408468 227.614228,6.20329763 231.342806,6.20329763 C235.335354,6.20329763 237.546104,8.41404732 237.546104,12.5715766 L237.546104,23.1963736 L235.401347,23.1963736 L235.401347,21.3815791 C235.401347,20.5566725 235.467339,19.995736 235.467339,19.995736 L235.401347,19.995736 C235.401347,19.995736 234.015504,23.5923288 229.857974,23.5923288 C227.086288,23.5923288 224.215613,21.9755118 224.215613,18.6758854 Z M226.525352,18.5439004 C226.525352,20.0947248 227.746214,21.6785455 230.220933,21.6785455 C233.388575,21.6785455 235.302358,18.3789191 235.302358,15.5082441 L235.302358,14.7823263 L234.345466,14.7823263 C231.738761,14.7823263 226.525352,14.8813151 226.525352,18.5439004 Z M239.351899,29.1357011 L240.209802,27.3539029 C240.209802,27.3539029 241.133698,28.1128169 242.189578,28.1128169 C243.641414,28.1128169 244.664298,26.9249514 245.324223,25.4071233 L246.347107,23.0643885 L239.417892,6.5992528 L241.892612,6.5992528 L246.776059,18.7088817 C247.106022,19.5337883 247.369992,20.4576837 247.369992,20.4576837 L247.435984,20.4576837 C247.435984,20.4576837 247.666958,19.5337883 247.996921,18.7088817 L252.781379,6.5992528 L255.223102,6.5992528 L247.040029,26.6609813 C246.182126,28.7727422 244.46632,30.125589 242.255571,30.125589 C240.539765,30.125589 239.351899,29.1357011 239.351899,29.1357011 Z M257.391857,23.1963736 L257.391857,6.5992528 L259.602607,6.5992528 L259.602607,9.0739726 C259.602607,9.79989041 259.536614,10.3938232 259.536614,10.3938232 L259.602607,10.3938232 C260.394517,8.15007721 263.034218,6.20329763 265.607927,6.20329763 C268.676579,6.20329763 270.2604,7.62213699 270.755344,10.3608269 L270.821336,10.3608269 C271.712235,8.11708095 274.120963,6.20329763 276.925645,6.20329763 C280.951189,6.20329763 282.436021,8.54603238 282.436021,12.6375691 L282.436021,23.1963736 L280.192275,23.1963736 L280.192275,13.1985056 C280.192275,10.492812 279.631339,8.249066 276.595683,8.249066 C274.05497,8.249066 271.976206,10.492812 271.349277,12.9345355 C271.118303,13.6604533 271.05231,14.4523636 271.05231,15.3432628 L271.05231,23.1963736 L268.808564,23.1963736 L268.808564,13.1985056 C268.808564,10.6907895 268.445605,8.249066 265.31096,8.249066 C262.605267,8.249066 260.559498,10.5918007 259.866577,13.1325131 C259.701595,13.8254346 259.635603,14.5843487 259.635603,15.3432628 L259.635603,23.1963736 L257.391857,23.1963736 Z M285.561667,14.9143113 C285.561667,9.46992777 289.257249,6.20329763 293.744741,6.20329763 C298.331222,6.20329763 300.673956,9.73389788 300.673956,13.8584309 C300.673956,14.2543861 300.607964,15.0133001 300.607964,15.0133001 L287.871406,15.0133001 C287.970395,19.2698182 290.874066,21.5795567 294.305677,21.5795567 C297.341334,21.5795567 299.354106,19.5667846 299.354106,19.5667846 L300.37699,21.2825903 C300.37699,21.2825903 297.968263,23.5923288 294.239685,23.5923288 C289.290245,23.5923288 285.561667,20.0287323 285.561667,14.9143113 Z M287.970395,13.1655093 L298.397214,13.1655093 C298.265229,9.70090162 296.153468,8.08408468 293.678748,8.08408468 C290.907062,8.08408468 288.498335,9.83288667 287.970395,13.1655093 Z M304.063573,23.1963736 L304.063573,6.5992528 L306.274322,6.5992528 L306.274322,9.0739726 C306.274322,9.79989041 306.20833,10.3938232 306.20833,10.3938232 L306.274322,10.3938232 C306.868255,8.87599502 308.980016,6.20329763 312.906571,6.20329763 C316.998108,6.20329763 318.449944,8.54603238 318.449944,12.6375691 L318.449944,23.1963736 L316.206198,23.1963736 L316.206198,13.2315019 C316.206198,10.624797 315.810242,8.31505853 312.609605,8.31505853 C309.771926,8.31505853 307.330203,10.2618381 306.571289,13.000528 C306.373311,13.6934496 306.307318,14.4523636 306.307318,15.244274 L306.307318,23.1963736 L304.063573,23.1963736 Z M323.357388,17.1580573 L323.357388,8.67801743 L321.179635,8.67801743 L321.179635,6.79723039 L323.390384,6.79723039 L323.390384,2.0127721 L325.601134,2.0127721 L325.601134,6.79723039 L329.758663,6.79723039 L329.758663,8.67801743 L325.601134,8.67801743 L325.601134,16.9270834 C325.601134,20.8206426 328.075854,21.3155866 329.329712,21.3155866 C329.791659,21.3155866 330.088626,21.249594 330.088626,21.249594 L330.088626,23.2623661 C330.088626,23.2623661 329.725667,23.3283587 329.131734,23.3283587 C327.217951,23.3283587 323.357388,22.7014296 323.357388,17.1580573 Z M339.507559,21.1836015 L340.728421,19.5667846 C340.728421,19.5667846 342.576212,21.5795567 345.677861,21.5795567 C347.459659,21.5795567 349.010483,20.6886575 349.010483,18.9398555 C349.010483,15.3102665 340.068496,16.2011656 340.068496,10.7897783 C340.068496,7.82011457 342.741193,6.20329763 345.743853,6.20329763 C349.241457,6.20329763 350.858274,8.01809215 350.858274,8.01809215 L349.83539,9.73389788 C349.83539,9.73389788 348.416551,8.21606974 345.677861,8.21606974 C343.995051,8.21606974 342.378234,8.94198755 342.378234,10.7897783 C342.378234,14.4523636 351.320222,13.4624757 351.320222,18.9398555 C351.320222,21.6455492 348.977487,23.5923288 345.644864,23.5923288 C341.61932,23.5923288 339.507559,21.1836015 339.507559,21.1836015 Z M353.356991,14.8153225 C353.356991,9.8988792 357.283547,6.20329763 362.133998,6.20329763 C366.984448,6.20329763 370.911004,9.8988792 370.911004,14.8153225 C370.911004,19.8307547 366.984448,23.5923288 362.133998,23.5923288 C357.283547,23.5923288 353.356991,19.8307547 353.356991,14.8153225 Z M355.66673,14.8153225 C355.66673,18.6758854 358.570401,21.5795567 362.133998,21.5795567 C365.697594,21.5795567 368.601265,18.6758854 368.601265,14.8153225 C368.601265,11.0537484 365.697594,8.249066 362.133998,8.249066 C358.570401,8.249066 355.66673,11.0537484 355.66673,14.8153225 Z M374.03665,19.2698182 L374.03665,-2.84217094e-14 L376.280396,-2.84217094e-14 L376.280396,18.7748742 C376.280396,20.9526276 377.270284,21.2825903 378.128187,21.2825903 C378.425153,21.2825903 378.689123,21.249594 378.689123,21.249594 L378.689123,23.2623661 C378.689123,23.2623661 378.293168,23.3283587 377.864216,23.3283587 C376.478373,23.3283587 374.03665,22.8994072 374.03665,19.2698182 Z M381.220836,17.1580573 L381.220836,6.5992528 L383.464582,6.5992528 L383.464582,16.5641245 C383.464582,19.1708294 383.860538,21.4805679 387.061175,21.4805679 C390.855745,21.4805679 393.19848,18.1479452 393.19848,14.5513524 L393.19848,6.5992528 L395.442226,6.5992528 L395.442226,23.1963736 L393.264473,23.1963736 L393.264473,20.7216538 C393.264473,19.995736 393.330465,19.4018032 393.330465,19.4018032 L393.264473,19.4018032 C392.604547,21.0186202 390.426794,23.5923288 386.764209,23.5923288 C382.87065,23.5923288 381.220836,21.4805679 381.220836,17.1580573 Z M400.580644,17.1580573 L400.580644,8.67801743 L398.402891,8.67801743 L398.402891,6.79723039 L400.613641,6.79723039 L400.613641,2.0127721 L402.82439,2.0127721 L402.82439,6.79723039 L406.98192,6.79723039 L406.98192,8.67801743 L402.82439,8.67801743 L402.82439,16.9270834 C402.82439,20.8206426 405.29911,21.3155866 406.552968,21.3155866 C407.014916,21.3155866 407.311882,21.249594 407.311882,21.249594 L407.311882,23.2623661 C407.311882,23.2623661 406.948923,23.3283587 406.354991,23.3283587 C404.441207,23.3283587 400.580644,22.7014296 400.580644,17.1580573 Z M410.041573,2.80468244 L410.041573,-2.84217094e-14 L412.384308,-2.84217094e-14 L412.384308,2.80468244 L410.041573,2.80468244 Z M410.107566,23.1963736 L410.107566,6.5992528 L412.351312,6.5992528 L412.351312,23.1963736 L410.107566,23.1963736 Z M415.641939,14.8153225 C415.641939,9.8988792 419.568495,6.20329763 424.418945,6.20329763 C429.269396,6.20329763 433.195952,9.8988792 433.195952,14.8153225 C433.195952,19.8307547 429.269396,23.5923288 424.418945,23.5923288 C419.568495,23.5923288 415.641939,19.8307547 415.641939,14.8153225 Z M417.951678,14.8153225 C417.951678,18.6758854 420.855349,21.5795567 424.418945,21.5795567 C427.982542,21.5795567 430.886213,18.6758854 430.886213,14.8153225 C430.886213,11.0537484 427.982542,8.249066 424.418945,8.249066 C420.855349,8.249066 417.951678,11.0537484 417.951678,14.8153225 Z M436.486579,23.1963736 L436.486579,6.5992528 L438.697329,6.5992528 L438.697329,9.0739726 C438.697329,9.79989041 438.631336,10.3938232 438.631336,10.3938232 L438.697329,10.3938232 C439.291261,8.87599502 441.403022,6.20329763 445.329578,6.20329763 C449.421114,6.20329763 450.87295,8.54603238 450.87295,12.6375691 L450.87295,23.1963736 L448.629204,23.1963736 L448.629204,13.2315019 C448.629204,10.624797 448.233249,8.31505853 445.032611,8.31505853 C442.194933,8.31505853 439.753209,10.2618381 438.994295,13.000528 C438.796317,13.6934496 438.730325,14.4523636 438.730325,15.244274 L438.730325,23.1963736 L436.486579,23.1963736 Z" id="pay-off"></path>
        </g>
        <g id="Branding/Logo-(horizontal,-payline)" transform="translate(100.000000, 100.000000)">
            <g id="Branding/Logo" transform="translate(0.000000, -0.000000)" fill="#FFB200">
                <path d="M88.8493151,0 C137.919437,0 177.69863,39.7791933 177.69863,88.8493151 C177.69863,137.919437 137.919437,177.69863 88.8493151,177.69863 C71.8951171,177.69863 56.0500412,172.949914 42.571602,164.709997 L60.582997,133.273973 L92.856245,133.273973 C117.391306,133.273973 137.280902,113.384376 137.280902,88.8493151 C137.280902,64.3142542 117.391306,44.4246575 92.856245,44.4246575 L76.654311,44.4246575 C71.3624352,44.4246575 67.0725222,48.7145705 67.0725222,54.0064464 C67.0725222,59.2983223 71.3624352,63.5882353 76.654311,63.5882353 L92.856245,63.5882353 C106.807554,63.5882353 118.117325,74.8980059 118.117325,88.8493151 C118.117325,102.800624 106.807554,114.110395 92.856245,114.110395 L58.0133763,114.110395 C53.547008,114.110395 49.7943819,117.166289 48.7323183,121.301229 C48.6545583,121.524377 48.5844187,121.75202 48.5222756,121.983942 L37.894227,161.644436 C14.9799139,145.575152 0,118.961607 0,88.8493151 C0,39.7791933 39.7791933,0 88.8493151,0 Z M92.856245,76.654311 L70.034166,76.654311 C63.2990512,76.654311 57.839162,82.1142003 57.839162,88.8493151 C57.839162,95.5844298 63.2990512,101.044319 70.034166,101.044319 L92.856245,101.044319 C99.5913597,101.044319 105.051249,95.5844298 105.051249,88.8493151 C105.051249,82.1142003 99.5913597,76.654311 92.856245,76.654311 Z" id="logo"></path>
            </g>
            <g id="Branding/Name" transform="translate(229.231233, 56.863562)" fill="#FFFFFF" fill-rule="nonzero">
                <path d="M0,63.5272603 L0,0.799643836 L22.9231233,0.799643836 C34.3846849,0.799643836 42.6476712,8.52953425 42.6476712,20.4353425 C42.6476712,32.3411507 34.3846849,40.337589 22.9231233,40.337589 L8.79608219,40.337589 L8.79608219,63.5272603 L0,63.5272603 Z M8.79608219,32.6965479 L21.5015342,32.6965479 C29.053726,32.6965479 33.6738904,27.9875342 33.6738904,20.4353425 C33.6738904,12.8831507 29.053726,8.44068493 21.5903836,8.44068493 L8.79608219,8.44068493 L8.79608219,32.6965479 Z M49.9333151,63.5272603 L49.9333151,18.5695068 L58.2851507,18.5695068 L58.2851507,26.3882466 C58.2851507,28.2540822 58.1074521,29.7645205 58.1074521,29.7645205 L58.2851507,29.7645205 C60.3286849,23.1896712 65.5707945,18.036411 72.5010411,18.036411 C73.6560822,18.036411 74.722274,18.2141096 74.722274,18.2141096 L74.722274,26.7436438 C74.722274,26.7436438 73.5672329,26.4770959 72.2344932,26.4770959 C66.7258356,26.4770959 61.6614247,30.3864658 59.6178904,37.0501644 C58.8182466,39.6267945 58.5516986,42.3811233 58.5516986,45.1354521 L58.5516986,63.5272603 L49.9333151,63.5272603 Z M77.4766027,40.9595342 C77.4766027,27.365589 88.3162192,17.5033151 101.732466,17.5033151 C115.148712,17.5033151 125.988329,27.365589 125.988329,40.9595342 C125.988329,54.6423288 115.148712,64.5934521 101.732466,64.5934521 C88.3162192,64.5934521 77.4766027,54.6423288 77.4766027,40.9595342 Z M86.2726849,40.9595342 C86.2726849,50.3775616 93.2917808,57.1301096 101.732466,57.1301096 C110.262,57.1301096 117.192247,50.3775616 117.192247,40.9595342 C117.192247,31.6303562 110.262,24.9666575 101.732466,24.9666575 C93.2917808,24.9666575 86.2726849,31.6303562 86.2726849,40.9595342 Z M133.984767,63.5272603 L133.984767,18.5695068 L142.336603,18.5695068 L142.336603,24.522411 C142.336603,26.2993973 142.158904,27.8098356 142.158904,27.8098356 L142.336603,27.8098356 C144.113589,23.9004658 149.444548,17.5033151 159.217973,17.5033151 C169.791041,17.5033151 174.677753,23.2785205 174.677753,34.7400822 L174.677753,63.5272603 L166.05937,63.5272603 L166.05937,36.6947671 C166.05937,30.3864658 164.72663,25.4109041 157.529836,25.4109041 C150.688438,25.4109041 145.179781,29.9422192 143.313945,36.4282192 C142.780849,38.2052055 142.603151,40.2487397 142.603151,42.4699726 L142.603151,63.5272603 L133.984767,63.5272603 Z M181.696849,50.9106575 C181.696849,36.0728219 201.243699,35.4508767 208.79589,35.4508767 L210.750575,35.4508767 L210.750575,34.6512329 C210.750575,27.2767397 206.574658,24.7889589 200.888301,24.7889589 C193.958055,24.7889589 188.360548,29.1425753 188.360548,29.1425753 L184.806575,22.834274 C184.806575,22.834274 191.292575,17.5033151 201.599096,17.5033151 C212.971808,17.5033151 219.368959,23.7227671 219.368959,35.0954795 L219.368959,63.5272603 L211.372521,63.5272603 L211.372521,59.2624932 C211.372521,57.2189589 211.550219,55.7085205 211.550219,55.7085205 L211.372521,55.7085205 C211.372521,55.7085205 207.729699,64.5934521 196.978932,64.5934521 C189.249041,64.5934521 181.696849,59.8844384 181.696849,50.9106575 Z M190.404082,50.466411 C190.404082,54.1092329 193.24726,57.6632055 198.844767,57.6632055 C206.130411,57.6632055 210.839425,50.0221644 210.839425,43.3584658 L210.839425,41.9368767 L208.618192,41.9368767 C202.132192,41.9368767 190.404082,42.3811233 190.404082,50.466411 Z M230.030877,63.5272603 L230.030877,18.5695068 L238.382712,18.5695068 L238.382712,24.522411 C238.382712,26.2993973 238.205014,27.8098356 238.205014,27.8098356 L238.382712,27.8098356 C240.515096,22.567726 246.823397,17.5033151 253.842493,17.5033151 C261.394685,17.5033151 265.837151,20.9684384 267.347589,27.7209863 L267.525288,27.7209863 C270.013068,22.3011781 276.232521,17.5033151 283.518164,17.5033151 C293.646986,17.5033151 298.356,23.2785205 298.356,34.7400822 L298.356,63.5272603 L289.737616,63.5272603 L289.737616,36.6059178 C289.737616,30.2976164 288.493726,25.3220548 281.741178,25.3220548 C275.432877,25.3220548 270.723863,30.6530137 269.124575,36.7836164 C268.680329,38.6494521 268.50263,40.6929863 268.50263,43.0030685 L268.50263,63.5272603 L259.884247,63.5272603 L259.884247,36.6059178 C259.884247,30.741863 258.995753,25.3220548 252.065507,25.3220548 C245.490658,25.3220548 240.870493,30.741863 239.182356,37.1390137 C238.73811,38.916 238.64926,40.9595342 238.64926,43.0030685 L238.64926,63.5272603 L230.030877,63.5272603 Z M308.929068,9.59572603 L308.929068,0.799643836 L317.636301,0.799643836 L317.636301,9.59572603 L308.929068,9.59572603 Z M309.017918,63.5272603 L309.017918,18.5695068 L317.636301,18.5695068 L317.636301,63.5272603 L309.017918,63.5272603 Z M325.721589,41.0483836 C325.721589,27.7209863 335.672712,17.5033151 349.799753,17.5033151 C361.083616,17.5033151 366.681123,24.0781644 366.681123,24.0781644 L362.594055,30.1199178 C362.594055,30.1199178 357.796192,24.9666575 350.155151,24.9666575 C341.092521,24.9666575 334.517671,31.7192055 334.517671,40.9595342 C334.517671,50.1110137 341.092521,57.1301096 350.421699,57.1301096 C358.773534,57.1301096 364.282192,51.0883562 364.282192,51.0883562 L367.747315,57.3966575 C367.747315,57.3966575 361.527863,64.5934521 349.799753,64.5934521 C335.672712,64.5934521 325.721589,54.5534795 325.721589,41.0483836 Z M395.379452,63.5272603 L395.379452,7.10542736e-15 L421.767699,7.10542736e-15 C434.117753,7.10542736e-15 442.469589,9.06263014 442.469589,21.8569315 C442.469589,34.6512329 434.117753,43.8915616 421.767699,43.8915616 L410.928082,43.8915616 L410.928082,63.5272603 L395.379452,63.5272603 Z M410.928082,30.5641644 L418.569123,30.5641644 C423.988932,30.5641644 426.654411,26.9213425 426.654411,21.8569315 C426.654411,16.7925205 423.988932,13.3273973 418.835671,13.3273973 L410.928082,13.3273973 L410.928082,30.5641644 Z M444.246575,49.8444658 C444.246575,36.5170685 463.704575,35.0066301 470.812521,35.0066301 L471.434466,35.0066301 L471.434466,34.2069863 C471.434466,30.3864658 468.502438,29.1425753 464.681918,29.1425753 C458.906712,29.1425753 452.331863,33.4961918 452.331863,33.4961918 L447.000904,22.6565753 C447.000904,22.6565753 454.908493,16.7036712 466.192356,16.7036712 C479.075507,16.7036712 486.805397,23.7227671 486.805397,35.3620274 L486.805397,63.5272603 L472.767205,63.5272603 L472.767205,60.7729315 C472.767205,59.2624932 472.944904,57.9297534 472.944904,57.9297534 L472.767205,57.9297534 C472.767205,57.9297534 469.390932,64.5934521 459.795205,64.5934521 C451.265671,64.5934521 444.246575,58.9070959 444.246575,49.8444658 Z M459.706356,49.0448219 C459.706356,51.1772055 461.039096,52.8653425 464.059973,52.8653425 C468.058192,52.8653425 471.612164,48.511726 471.612164,44.7800548 L471.612164,43.8027123 L470.190575,43.8027123 C465.303863,43.8027123 459.706356,45.2243014 459.706356,49.0448219 Z M489.648575,78.9870411 L494.535288,67.7031781 C494.535288,67.7031781 497.023068,69.3913151 499.244301,69.3913151 C501.732082,69.3913151 505.019507,68.6805205 506.618795,64.7711507 L507.507288,62.6387671 L488.049288,17.769863 L505.463753,17.769863 L512.216301,38.8271507 C513.015945,41.3149315 513.904438,45.9350959 513.904438,45.9350959 L514.082137,45.9350959 C514.082137,45.9350959 514.97063,41.5814795 515.592575,39.0936986 L521.367781,17.769863 L538.160301,17.769863 L519.413096,68.4139726 C515.592575,78.6316438 507.596137,82.1856164 500.310493,82.1856164 C494.26874,82.1856164 489.648575,78.9870411 489.648575,78.9870411 Z" id="name"></path>
            </g>
        </g>
    </g>
</svg>