<?xml version="1.0" encoding="UTF-8"?>
<svg width="772px" height="250px" viewBox="0 0 772 250" version="1.1" xmlns="http://www.w3.org/2000/svg" xmlns:xlink="http://www.w3.org/1999/xlink">
    <title>Info</title>
    <defs>
        <rect id="path-1" x="0" y="0" width="773" height="338"></rect>
        <linearGradient x1="64.9438679%" y1="64.5151609%" x2="100%" y2="31.6061159%" id="linearGradient-3">
            <stop stop-color="#FFB200" stop-opacity="0.05" offset="0%"></stop>
            <stop stop-color="#FFB200" stop-opacity="0.4" offset="100%"></stop>
        </linearGradient>
        <path d="M0,353 C48.3680903,289.977444 111.156472,248.361718 188.365145,228.152821 C304.178155,197.839475 285.94284,136.962545 391.219917,73.9476408 C461.404635,31.9377044 524.997996,7.2884908 582,0 L582,353 L0,353 Z" id="path-4"></path>
    </defs>
    <g id="Info" stroke="none" stroke-width="1" fill="none" fill-rule="evenodd">
        <rect fill="#FFFFFF" x="0" y="0" width="772" height="250"></rect>
        <g id="Group-2">
            <mask id="mask-2" fill="white">
                <use xlink:href="#path-1"></use>
            </mask>
            <use id="bg" fill="#0A0F1D" xlink:href="#path-1"></use>
            <g id="graph" mask="url(#mask-2)">
                <g transform="translate(191.000000, -37.000000)">
                    <g id="Group" stroke="none" stroke-width="1" fill="none">
                        <mask id="mask-5" fill="white">
                            <use xlink:href="#path-4"></use>
                        </mask>
                        <use id="Path" stroke="#FFB200" stroke-width="2" fill="url(#linearGradient-3)" xlink:href="#path-4"></use>
                        <g id="lines" opacity="0.1" mask="url(#mask-5)" fill="#FFFFFF">
                            <g transform="translate(25.115353, 13.676984)" id="Rectangle">
                                <rect x="479.606639" y="0" width="1" height="352.373902"></rect>
                                <rect x="392.185892" y="0" width="1" height="352.373902"></rect>
                                <rect x="304.765145" y="0" width="1" height="352.373902"></rect>
                                <rect x="217.344398" y="0" width="1" height="352.373902"></rect>
                                <rect x="129.923651" y="0" width="1" height="352.373902"></rect>
                                <rect x="42.5029046" y="0" width="1" height="352.373902"></rect>
                                <rect x="0" y="244.923891" width="645.754357" height="1"></rect>
                                <rect x="0" y="99.4306885" width="645.754357" height="1"></rect>
                            </g>
                        </g>
                    </g>
                    <ellipse id="Oval" stroke="#FFB200" stroke-width="2" fill="#101218" cx="281.098755" cy="176.571366" rx="3.86390041" ry="3.86692896"></ellipse>
                    <ellipse id="Oval" stroke="#FFB200" stroke-width="2" fill="#101218" cx="403.294606" cy="66.8472568" rx="3.86390041" ry="3.86692896"></ellipse>
                    <ellipse id="Oval" stroke="#FFB200" stroke-width="2" fill="#101218" cx="136.20249" cy="245.209355" rx="3.86390041" ry="3.86692896"></ellipse>
                </g>
            </g>
        </g>
        <g id="Group-3" transform="translate(40.000000, 40.000000)">
            <g id="Branding/Pay-off" transform="translate(101.597633, 67.396450)" fill="#FFFFFF" fill-rule="nonzero">
                <path d="M6.21038534,1.58239914 L6.18109107,1.58239914 C6.18109107,1.58239914 6.01997258,2.50418505 5.84420696,3.19552448 L3.88149084,10.8002582 L2.66577861,10.8002582 L-1.42108547e-14,0 L1.05459374,0 L3.04660413,8.38825175 C3.17842834,8.94132329 3.28095829,9.54048413 3.28095829,9.54048413 L3.31025256,9.54048413 C3.3248997,9.54048413 3.39813537,8.94132329 3.54460673,8.38825175 L5.71238274,0 L6.67909366,0 L8.84686968,8.38825175 C8.99334103,8.94132329 9.06657671,9.54048413 9.08122384,9.54048413 L9.11051811,9.54048413 C9.11051811,9.54048413 9.21304806,8.94132329 9.34487228,8.38825175 L11.4101183,0 L12.4647121,0 L9.72569779,10.8002582 L8.50998557,10.8002582 L6.54726945,3.19552448 C6.37150382,2.50418505 6.21038534,1.58239914 6.21038534,1.58239914 Z M12.9880143,6.8980312 C12.9880143,4.60892953 14.7310234,2.88826251 16.8841522,2.88826251 C19.0372811,2.88826251 20.7802902,4.60892953 20.7802902,6.8980312 C20.7802902,9.23322216 19.0372811,10.9846154 16.8841522,10.9846154 C14.7310234,10.9846154 12.9880143,9.23322216 12.9880143,6.8980312 Z M14.0133137,6.8980312 C14.0133137,8.69551372 15.3022616,10.0474664 16.8841522,10.0474664 C18.4660429,10.0474664 19.7549908,8.69551372 19.7549908,6.8980312 C19.7549908,5.14663798 18.4660429,3.84077461 16.8841522,3.84077461 C15.3022616,3.84077461 14.0133137,5.14663798 14.0133137,6.8980312 Z M22.2410091,10.8002582 L22.2410091,3.07261969 L23.2223671,3.07261969 L23.2223671,4.43993545 C23.2223671,4.77792361 23.1930729,5.05445939 23.1930729,5.05445939 L23.2223671,5.05445939 C23.5738984,3.88686391 24.3941379,2.9958042 25.5512616,2.9958042 C25.7563215,2.9958042 25.9467343,3.04189349 25.9467343,3.04189349 L25.9467343,4.07122109 C25.9467343,4.07122109 25.7709687,4.04049489 25.5805559,4.04049489 C24.5406093,4.04049489 23.7643111,4.9008284 23.4420742,6.03769769 C23.2956028,6.52931684 23.2370143,7.05166218 23.2370143,7.54328133 L23.2370143,10.8002582 L22.2410091,10.8002582 Z M26.5139779,6.9287574 C26.5139779,4.48602474 27.8908086,2.88826251 29.8242304,2.88826251 C31.6111809,2.88826251 32.2263606,4.34775686 32.2263606,4.34775686 L32.2556549,4.34775686 C32.2556549,4.34775686 32.2263606,4.08658419 32.2263606,3.76395912 L32.2263606,0 L33.2223658,0 L33.2223658,10.8002582 L32.2556549,10.8002582 L32.2556549,9.98601399 C32.2556549,9.64802582 32.2849492,9.43294244 32.2849492,9.43294244 L32.2556549,9.43294244 C32.2556549,9.43294244 31.6551223,10.9846154 29.7217005,10.9846154 C27.7443372,10.9846154 26.5139779,9.32540075 26.5139779,6.9287574 Z M27.5392773,6.9287574 C27.5392773,8.8337816 28.4913411,10.0474664 29.8681718,10.0474664 C31.0985312,10.0474664 32.2556549,9.12568047 32.2556549,6.9287574 C32.2556549,5.36172136 31.4940039,3.82541151 29.9121133,3.82541151 C28.6085182,3.82541151 27.5392773,4.97764389 27.5392773,6.9287574 Z M35.5179714,10.8002582 L35.5179714,0 L39.0772252,0 C40.9227643,0 42.2556536,1.25977407 42.2556536,3.25697687 C42.2556536,5.26954276 40.9227643,6.56004303 39.0772252,6.56004303 L36.5286237,6.56004303 L36.5286237,10.8002582 L35.5179714,10.8002582 Z M36.5286237,5.60753093 L38.945401,5.60753093 C40.3222317,5.60753093 41.215707,4.73183432 41.215707,3.25697687 C41.215707,1.79748252 40.3222317,0.952512103 38.9600482,0.952512103 L36.5286237,0.952512103 L36.5286237,5.60753093 Z M43.5845482,10.8002582 L43.5845482,3.07261969 L44.5659063,3.07261969 L44.5659063,4.43993545 C44.5659063,4.77792361 44.536612,5.05445939 44.536612,5.05445939 L44.5659063,5.05445939 C44.9174375,3.88686391 45.7376771,2.9958042 46.8948008,2.9958042 C47.0998607,2.9958042 47.2902734,3.04189349 47.2902734,3.04189349 L47.2902734,4.07122109 C47.2902734,4.07122109 47.1145078,4.04049489 46.924095,4.04049489 C45.8841484,4.04049489 45.1078503,4.9008284 44.7856133,6.03769769 C44.6391419,6.52931684 44.5805534,7.05166218 44.5805534,7.54328133 L44.5805534,10.8002582 L43.5845482,10.8002582 Z M47.7989285,6.94412049 C47.7989285,4.40920925 49.4394076,2.88826251 51.431418,2.88826251 C53.4673698,2.88826251 54.5073164,4.53211404 54.5073164,6.45250134 C54.5073164,6.63685853 54.4780221,6.99020979 54.4780221,6.99020979 L48.8242279,6.99020979 C48.8681694,8.97204949 50.1571173,10.0474664 51.6804193,10.0474664 C53.0279558,10.0474664 53.921431,9.11031737 53.921431,9.11031737 L54.3754922,9.90919849 C54.3754922,9.90919849 53.3062513,10.9846154 51.651125,10.9846154 C49.4540548,10.9846154 47.7989285,9.32540075 47.7989285,6.94412049 Z M48.8681694,6.12987628 L53.4966641,6.12987628 C53.4380755,4.51675094 52.5006589,3.76395912 51.4021237,3.76395912 C50.1717644,3.76395912 49.1025235,4.57820334 48.8681694,6.12987628 Z M55.4114441,9.8631092 L55.9533881,9.11031737 C55.9533881,9.11031737 56.7736277,10.0474664 58.1504584,10.0474664 C58.9414037,10.0474664 59.6298191,9.63266272 59.6298191,8.8184185 C59.6298191,7.12847768 55.6604454,7.54328133 55.6604454,5.02373319 C55.6604454,3.64105433 56.8468634,2.88826251 58.1797527,2.88826251 C59.732349,2.88826251 60.4500586,3.73323292 60.4500586,3.73323292 L59.9959975,4.53211404 C59.9959975,4.53211404 59.3661706,3.82541151 58.1504584,3.82541151 C57.4034545,3.82541151 56.6857449,4.16339968 56.6857449,5.02373319 C56.6857449,6.72903712 60.6551185,6.26814416 60.6551185,8.8184185 C60.6551185,10.0781926 59.6151719,10.9846154 58.1358113,10.9846154 C56.3488608,10.9846154 55.4114441,9.8631092 55.4114441,9.8631092 Z M61.5006577,9.8631092 L62.0426017,9.11031737 C62.0426017,9.11031737 62.8628413,10.0474664 64.239672,10.0474664 C65.0306173,10.0474664 65.7190327,9.63266272 65.7190327,8.8184185 C65.7190327,7.12847768 61.749659,7.54328133 61.749659,5.02373319 C61.749659,3.64105433 62.936077,2.88826251 64.2689663,2.88826251 C65.8215626,2.88826251 66.5392722,3.73323292 66.5392722,3.73323292 L66.085211,4.53211404 C66.085211,4.53211404 65.4553842,3.82541151 64.239672,3.82541151 C63.4926681,3.82541151 62.7749585,4.16339968 62.7749585,5.02373319 C62.7749585,6.72903712 66.7443321,6.26814416 66.7443321,8.8184185 C66.7443321,10.0781926 65.7043855,10.9846154 64.2250249,10.9846154 C62.4380744,10.9846154 61.5006577,9.8631092 61.5006577,9.8631092 Z M72.8002568,10.8002582 L73.2982594,7.80445401 L71.2183662,7.80445401 L71.3648375,6.94412049 L73.4300836,6.94412049 L73.9427333,3.9329532 L71.8774872,3.9329532 L72.0093115,3.07261969 L74.0892047,3.07261969 L74.6018544,0 L75.4953296,0 L74.9826799,3.07261969 L77.5166343,3.07261969 L78.029284,0 L78.9227593,0 L78.4101096,3.07261969 L80.4607085,3.07261969 L80.3142371,3.9329532 L78.2636382,3.9329532 L77.7656356,6.94412049 L79.8015874,6.94412049 L79.6697632,7.80445401 L77.6191643,7.80445401 L77.1211617,10.8002582 L76.2276864,10.8002582 L76.725689,7.80445401 L74.1917346,7.80445401 L73.693732,10.8002582 L72.8002568,10.8002582 Z M74.338206,6.94412049 L76.8575132,6.94412049 L77.370163,3.9329532 L74.8362086,3.9329532 L74.338206,6.94412049 Z M81.555249,10.8002582 L81.555249,9.8477461 L83.8694963,9.8477461 L83.8694963,1.92038731 C83.8694963,1.61312534 83.8841435,1.32122647 83.8841435,1.32122647 L83.8548492,1.32122647 C83.8548492,1.32122647 83.7523192,1.55167294 83.3421995,1.9664766 L82.2436643,3.11870898 L81.5991904,2.42736955 L83.9280849,0 L84.8655015,0 L84.8655015,9.8477461 L87.1358075,9.8477461 L87.1358075,10.8002582 L81.555249,10.8002582 Z M91.9027842,13.8728779 L91.9027842,3.07261969 L92.854848,3.07261969 L92.854848,3.82541151 C92.854848,4.16339968 92.8255537,4.42457235 92.8255537,4.42457235 L92.854848,4.42457235 C92.854848,4.42457235 93.4553805,2.88826251 95.4034495,2.88826251 C97.3808128,2.88826251 98.6111721,4.54747714 98.6111721,6.94412049 C98.6111721,9.38685315 97.2196943,10.9846154 95.3155667,10.9846154 C93.5432634,10.9846154 92.8987894,9.50975793 92.8987894,9.50975793 L92.8694951,9.50975793 C92.8694951,9.50975793 92.8987894,9.78629371 92.8987894,10.1857343 L92.8987894,13.8728779 L91.9027842,13.8728779 Z M92.8694951,6.95948359 C92.8694951,8.51115654 93.6897347,10.0628295 95.2130368,10.0628295 C96.5166318,10.0628295 97.5858727,8.9105971 97.5858727,6.94412049 C97.5858727,5.05445939 96.6338089,3.84077461 95.2569782,3.84077461 C94.0266188,3.84077461 92.8694951,4.76256052 92.8694951,6.95948359 Z M99.529947,8.69551372 C99.529947,6.08378698 102.766964,6.02233459 104.041265,6.02233459 L104.451384,6.02233459 L104.451384,5.82261431 C104.451384,4.33239376 103.675086,3.82541151 102.620493,3.82541151 C101.40478,3.82541151 100.540599,4.56284024 100.540599,4.56284024 L100.071891,3.76395912 C100.071891,3.76395912 101.038602,2.88826251 102.693728,2.88826251 C104.466032,2.88826251 105.44739,3.9175901 105.44739,5.85334051 L105.44739,10.8002582 L104.495326,10.8002582 L104.495326,9.95528779 C104.495326,9.57121033 104.52462,9.31003765 104.52462,9.31003765 L104.495326,9.31003765 C104.495326,9.31003765 103.880146,10.9846154 102.034607,10.9846154 C100.804248,10.9846154 99.529947,10.2318236 99.529947,8.69551372 Z M100.555246,8.63406132 C100.555246,9.35612695 101.09719,10.0935557 102.195726,10.0935557 C103.601851,10.0935557 104.451384,8.55724583 104.451384,7.22065627 L104.451384,6.8826681 L104.026618,6.8826681 C102.869494,6.8826681 100.555246,6.9287574 100.555246,8.63406132 Z M106.248987,13.5656159 L106.629813,12.7360086 C106.629813,12.7360086 107.039933,13.0893599 107.508641,13.0893599 C108.153115,13.0893599 108.607176,12.5362883 108.900119,11.8295858 L109.35418,10.7388058 L106.278282,3.07261969 L107.376817,3.07261969 L109.544593,8.71087682 C109.691064,9.09495428 109.808241,9.52512103 109.808241,9.52512103 L109.837536,9.52512103 C109.837536,9.52512103 109.940065,9.09495428 110.086537,8.71087682 L112.210371,3.07261969 L113.294259,3.07261969 L109.66177,12.4133835 C109.280944,13.3966218 108.519293,14.0265089 107.537935,14.0265089 C106.776284,14.0265089 106.248987,13.5656159 106.248987,13.5656159 Z M114.256976,10.8002582 L114.256976,3.07261969 L115.238334,3.07261969 L115.238334,4.22485207 C115.238334,4.56284024 115.209039,4.83937601 115.209039,4.83937601 L115.238334,4.83937601 C115.589865,3.79468531 116.761636,2.88826251 117.904112,2.88826251 C119.266296,2.88826251 119.969358,3.54887574 120.189065,4.82401291 L120.21836,4.82401291 C120.613832,3.77932222 121.683073,2.88826251 122.92808,2.88826251 C124.71503,2.88826251 125.374151,3.9790425 125.374151,5.8840667 L125.374151,10.8002582 L124.378146,10.8002582 L124.378146,6.14523938 C124.378146,4.8854653 124.129145,3.84077461 122.781608,3.84077461 C121.653779,3.84077461 120.731009,4.8854653 120.452714,6.02233459 C120.350184,6.36032275 120.32089,6.72903712 120.32089,7.14384077 L120.32089,10.8002582 L119.324884,10.8002582 L119.324884,6.14523938 C119.324884,4.97764389 119.163766,3.84077461 117.772288,3.84077461 C116.571223,3.84077461 115.663101,4.9315546 115.355511,6.11451318 C115.282275,6.43713825 115.252981,6.79048951 115.252981,7.14384077 L115.252981,10.8002582 L114.256976,10.8002582 Z M126.761635,6.94412049 C126.761635,4.40920925 128.402114,2.88826251 130.394124,2.88826251 C132.430076,2.88826251 133.470022,4.53211404 133.470022,6.45250134 C133.470022,6.63685853 133.440728,6.99020979 133.440728,6.99020979 L127.786934,6.99020979 C127.830875,8.97204949 129.119823,10.0474664 130.643125,10.0474664 C131.990662,10.0474664 132.884137,9.11031737 132.884137,9.11031737 L133.338198,9.90919849 C133.338198,9.90919849 132.268957,10.9846154 130.613831,10.9846154 C128.416761,10.9846154 126.761635,9.32540075 126.761635,6.94412049 Z M127.830875,6.12987628 L132.45937,6.12987628 C132.400782,4.51675094 131.463365,3.76395912 130.36483,3.76395912 C129.13447,3.76395912 128.06523,4.57820334 127.830875,6.12987628 Z M134.974683,10.8002582 L134.974683,3.07261969 L135.956041,3.07261969 L135.956041,4.22485207 C135.956041,4.56284024 135.926746,4.83937601 135.926746,4.83937601 L135.956041,4.83937601 C136.219689,4.13267348 137.157106,2.88826251 138.900115,2.88826251 C140.71636,2.88826251 141.360834,3.9790425 141.360834,5.8840667 L141.360834,10.8002582 L140.364828,10.8002582 L140.364828,6.16060247 C140.364828,4.9469177 140.189063,3.87150081 138.768291,3.87150081 C137.508637,3.87150081 136.424749,4.77792361 136.087865,6.05306079 C135.999982,6.37568585 135.970688,6.72903712 135.970688,7.09775148 L135.970688,10.8002582 L134.974683,10.8002582 Z M143.539262,7.98881119 L143.539262,4.04049489 L142.572551,4.04049489 L142.572551,3.16479828 L143.553909,3.16479828 L143.553909,0.937149005 L144.535267,0.937149005 L144.535267,3.16479828 L146.380806,3.16479828 L146.380806,4.04049489 L144.535267,4.04049489 L144.535267,7.8812695 C144.535267,9.69411512 145.633802,9.92456159 146.190394,9.92456159 C146.395453,9.92456159 146.527278,9.8938354 146.527278,9.8938354 L146.527278,10.8309844 C146.527278,10.8309844 146.366159,10.8617106 146.102511,10.8617106 C145.252977,10.8617106 143.539262,10.5698117 143.539262,7.98881119 Z M150.708369,9.8631092 L151.250313,9.11031737 C151.250313,9.11031737 152.070553,10.0474664 153.447383,10.0474664 C154.238329,10.0474664 154.926744,9.63266272 154.926744,8.8184185 C154.926744,7.12847768 150.95737,7.54328133 150.95737,5.02373319 C150.95737,3.64105433 152.143788,2.88826251 153.476678,2.88826251 C155.029274,2.88826251 155.746984,3.73323292 155.746984,3.73323292 L155.292922,4.53211404 C155.292922,4.53211404 154.663096,3.82541151 153.447383,3.82541151 C152.700379,3.82541151 151.98267,4.16339968 151.98267,5.02373319 C151.98267,6.72903712 155.952043,6.26814416 155.952043,8.8184185 C155.952043,10.0781926 154.912097,10.9846154 153.432736,10.9846154 C151.645786,10.9846154 150.708369,9.8631092 150.708369,9.8631092 Z M156.856171,6.8980312 C156.856171,4.60892953 158.59918,2.88826251 160.752309,2.88826251 C162.905438,2.88826251 164.648447,4.60892953 164.648447,6.8980312 C164.648447,9.23322216 162.905438,10.9846154 160.752309,10.9846154 C158.59918,10.9846154 156.856171,9.23322216 156.856171,6.8980312 Z M157.881471,6.8980312 C157.881471,8.69551372 159.170419,10.0474664 160.752309,10.0474664 C162.3342,10.0474664 163.623148,8.69551372 163.623148,6.8980312 C163.623148,5.14663798 162.3342,3.84077461 160.752309,3.84077461 C159.170419,3.84077461 157.881471,5.14663798 157.881471,6.8980312 Z M166.03593,8.97204949 L166.03593,0 L167.031935,0 L167.031935,8.74160301 C167.031935,9.75556751 167.47135,9.90919849 167.852175,9.90919849 C167.983999,9.90919849 168.101176,9.8938354 168.101176,9.8938354 L168.101176,10.8309844 C168.101176,10.8309844 167.925411,10.8617106 167.734998,10.8617106 C167.119818,10.8617106 166.03593,10.6619903 166.03593,8.97204949 Z M169.225011,7.98881119 L169.225011,3.07261969 L170.221016,3.07261969 L170.221016,7.71227542 C170.221016,8.92596019 170.396782,10.0013771 171.817554,10.0013771 C173.501975,10.0013771 174.541921,8.44970414 174.541921,6.77512641 L174.541921,3.07261969 L175.537926,3.07261969 L175.537926,10.8002582 L174.571215,10.8002582 L174.571215,9.64802582 C174.571215,9.31003765 174.60051,9.03350188 174.60051,9.03350188 L174.571215,9.03350188 C174.278273,9.78629371 173.311562,10.9846154 171.68573,10.9846154 C169.957368,10.9846154 169.225011,10.0013771 169.225011,7.98881119 Z M177.818885,7.98881119 L177.818885,4.04049489 L176.852174,4.04049489 L176.852174,3.16479828 L177.833532,3.16479828 L177.833532,0.937149005 L178.81489,0.937149005 L178.81489,3.16479828 L180.660429,3.16479828 L180.660429,4.04049489 L178.81489,4.04049489 L178.81489,7.8812695 C178.81489,9.69411512 179.913425,9.92456159 180.470016,9.92456159 C180.675076,9.92456159 180.8069,9.8938354 180.8069,9.8938354 L180.8069,10.8309844 C180.8069,10.8309844 180.645782,10.8617106 180.382133,10.8617106 C179.5326,10.8617106 177.818885,10.5698117 177.818885,7.98881119 Z M182.018618,1.30586337 L182.018618,0 L183.058565,0 L183.058565,1.30586337 L182.018618,1.30586337 Z M182.047912,10.8002582 L182.047912,3.07261969 L183.043917,3.07261969 L183.043917,10.8002582 L182.047912,10.8002582 Z M184.504636,6.8980312 C184.504636,4.60892953 186.247645,2.88826251 188.400774,2.88826251 C190.553903,2.88826251 192.296912,4.60892953 192.296912,6.8980312 C192.296912,9.23322216 190.553903,10.9846154 188.400774,10.9846154 C186.247645,10.9846154 184.504636,9.23322216 184.504636,6.8980312 Z M185.529936,6.8980312 C185.529936,8.69551372 186.818884,10.0474664 188.400774,10.0474664 C189.982665,10.0474664 191.271613,8.69551372 191.271613,6.8980312 C191.271613,5.14663798 189.982665,3.84077461 188.400774,3.84077461 C186.818884,3.84077461 185.529936,5.14663798 185.529936,6.8980312 Z M193.757631,10.8002582 L193.757631,3.07261969 L194.738989,3.07261969 L194.738989,4.22485207 C194.738989,4.56284024 194.709695,4.83937601 194.709695,4.83937601 L194.738989,4.83937601 C195.002638,4.13267348 195.940054,2.88826251 197.683063,2.88826251 C199.499308,2.88826251 200.143782,3.9790425 200.143782,5.8840667 L200.143782,10.8002582 L199.147777,10.8002582 L199.147777,6.16060247 C199.147777,4.9469177 198.972011,3.87150081 197.551239,3.87150081 C196.291585,3.87150081 195.207697,4.77792361 194.870813,6.05306079 C194.782931,6.37568585 194.753636,6.72903712 194.753636,7.09775148 L194.753636,10.8002582 L193.757631,10.8002582 Z" id="pay-off"></path>
            </g>
            <g id="Branding/Logo-(horizontal,-payline)" transform="translate(-0.000000, 0.000000)">
                <g id="Branding/Logo" transform="translate(-0.000000, 0.000000)" fill="#FFB200">
                    <path d="M39.3518519,0 C61.0852795,0 78.7037037,17.5642137 78.7037037,39.2307692 C78.7037037,60.8973248 61.0852795,78.4615385 39.3518519,78.4615385 C31.842744,78.4615385 24.8248725,76.3647774 18.8551974,72.7265018 L26.8325436,58.8461538 L41.1265432,58.8461538 C51.993257,58.8461538 60.8024691,50.064047 60.8024691,39.2307692 C60.8024691,28.3974914 51.993257,19.6153846 41.1265432,19.6153846 L33.9506173,19.6153846 C31.6068163,19.6153846 29.7067901,21.5095645 29.7067901,23.8461538 C29.7067901,26.1827432 31.6068163,28.0769231 33.9506173,28.0769231 L41.1265432,28.0769231 C47.305655,28.0769231 52.3148148,33.0706701 52.3148148,39.2307692 C52.3148148,45.3908684 47.305655,50.3846154 41.1265432,50.3846154 L25.6944444,50.3846154 C23.7162653,50.3846154 22.0542065,51.7339231 21.5838126,53.5596761 C21.5493723,53.6582054 21.5183071,53.7587196 21.4907836,53.8611227 L16.7835622,71.3729258 C6.63468652,64.2776502 0,52.5266327 0,39.2307692 C0,17.5642137 17.6184242,0 39.3518519,0 Z M41.1265432,33.8461538 L31.0185185,33.8461538 C28.035499,33.8461538 25.617284,36.2569283 25.617284,39.2307692 C25.617284,42.2046102 28.035499,44.6153846 31.0185185,44.6153846 L41.1265432,44.6153846 C44.1095627,44.6153846 46.5277778,42.2046102 46.5277778,39.2307692 C46.5277778,36.2569283 44.1095627,33.8461538 41.1265432,33.8461538 Z" id="logo"></path>
                </g>
                <g id="Branding/Name" transform="translate(101.527778, 25.107692)" fill="#FFFFFF" fill-rule="nonzero">
                    <path d="M1.42108547e-14,28.05 L1.42108547e-14,0.353076923 L10.1527778,0.353076923 C15.2291667,0.353076923 18.8888889,3.76615385 18.8888889,9.02307692 C18.8888889,14.28 15.2291667,17.8107692 10.1527778,17.8107692 L3.89583333,17.8107692 L3.89583333,28.05 L1.42108547e-14,28.05 Z M3.89583333,14.4369231 L9.52314815,14.4369231 C12.8680556,14.4369231 14.9143519,12.3576923 14.9143519,9.02307692 C14.9143519,5.68846154 12.8680556,3.72692308 9.5625,3.72692308 L3.89583333,3.72692308 L3.89583333,14.4369231 Z M22.1157407,28.05 L22.1157407,8.19923077 L25.8148148,8.19923077 L25.8148148,11.6515385 C25.8148148,12.4753846 25.7361111,13.1423077 25.7361111,13.1423077 L25.8148148,13.1423077 C26.7199074,10.2392308 29.0416667,7.96384615 32.1111111,7.96384615 C32.6226852,7.96384615 33.0949074,8.04230769 33.0949074,8.04230769 L33.0949074,11.8084615 C33.0949074,11.8084615 32.5833333,11.6907692 31.9930556,11.6907692 C29.5532407,11.6907692 27.3101852,13.4169231 26.4050926,16.3592308 C26.0509259,17.4969231 25.9328704,18.7130769 25.9328704,19.9292308 L25.9328704,28.05 L22.1157407,28.05 Z M34.3148148,18.0853846 C34.3148148,12.0830769 39.1157407,7.72846154 45.0578704,7.72846154 C51,7.72846154 55.8009259,12.0830769 55.8009259,18.0853846 C55.8009259,24.1269231 51,28.5207692 45.0578704,28.5207692 C39.1157407,28.5207692 34.3148148,24.1269231 34.3148148,18.0853846 Z M38.2106481,18.0853846 C38.2106481,22.2438462 41.3194444,25.2253846 45.0578704,25.2253846 C48.8356481,25.2253846 51.9050926,22.2438462 51.9050926,18.0853846 C51.9050926,13.9661538 48.8356481,11.0238462 45.0578704,11.0238462 C41.3194444,11.0238462 38.2106481,13.9661538 38.2106481,18.0853846 Z M59.3425926,28.05 L59.3425926,8.19923077 L63.0416667,8.19923077 L63.0416667,10.8276923 C63.0416667,11.6123077 62.962963,12.2792308 62.962963,12.2792308 L63.0416667,12.2792308 C63.8287037,10.5530769 66.1898148,7.72846154 70.5185185,7.72846154 C75.2013889,7.72846154 77.3657407,10.2784615 77.3657407,15.3392308 L77.3657407,28.05 L73.5486111,28.05 L73.5486111,16.2023077 C73.5486111,13.4169231 72.9583333,11.22 69.7708333,11.22 C66.7407407,11.22 64.3009259,13.2207692 63.474537,16.0846154 C63.2384259,16.8692308 63.1597222,17.7715385 63.1597222,18.7523077 L63.1597222,28.05 L59.3425926,28.05 Z M80.474537,22.4792308 C80.474537,15.9276923 89.1319444,15.6530769 92.4768519,15.6530769 L93.3425926,15.6530769 L93.3425926,15.3 C93.3425926,12.0438462 91.4930556,10.9453846 88.974537,10.9453846 C85.9050926,10.9453846 83.4259259,12.8676923 83.4259259,12.8676923 L81.8518519,10.0823077 C81.8518519,10.0823077 84.724537,7.72846154 89.2893519,7.72846154 C94.3263889,7.72846154 97.1597222,10.4746154 97.1597222,15.4961538 L97.1597222,28.05 L93.6180556,28.05 L93.6180556,26.1669231 C93.6180556,25.2646154 93.6967593,24.5976923 93.6967593,24.5976923 L93.6180556,24.5976923 C93.6180556,24.5976923 92.0046296,28.5207692 87.2430556,28.5207692 C83.8194444,28.5207692 80.474537,26.4415385 80.474537,22.4792308 Z M84.3310185,22.2830769 C84.3310185,23.8915385 85.5902778,25.4607692 88.0694444,25.4607692 C91.2962963,25.4607692 93.3819444,22.0869231 93.3819444,19.1446154 L93.3819444,18.5169231 L92.3981481,18.5169231 C89.525463,18.5169231 84.3310185,18.7130769 84.3310185,22.2830769 Z M101.881944,28.05 L101.881944,8.19923077 L105.581019,8.19923077 L105.581019,10.8276923 C105.581019,11.6123077 105.502315,12.2792308 105.502315,12.2792308 L105.581019,12.2792308 C106.525463,9.96461538 109.319444,7.72846154 112.428241,7.72846154 C115.773148,7.72846154 117.740741,9.25846154 118.409722,12.24 L118.488426,12.24 C119.590278,9.84692308 122.344907,7.72846154 125.571759,7.72846154 C130.05787,7.72846154 132.143519,10.2784615 132.143519,15.3392308 L132.143519,28.05 L128.326389,28.05 L128.326389,16.1630769 C128.326389,13.3776923 127.775463,11.1807692 124.784722,11.1807692 C121.990741,11.1807692 119.905093,13.5346154 119.196759,16.2415385 C119,17.0653846 118.921296,17.9676923 118.921296,18.9876923 L118.921296,28.05 L115.104167,28.05 L115.104167,16.1630769 C115.104167,13.5738462 114.710648,11.1807692 111.641204,11.1807692 C108.729167,11.1807692 106.68287,13.5738462 105.935185,16.3984615 C105.738426,17.1830769 105.699074,18.0853846 105.699074,18.9876923 L105.699074,28.05 L101.881944,28.05 Z M136.826389,4.23692308 L136.826389,0.353076923 L140.68287,0.353076923 L140.68287,4.23692308 L136.826389,4.23692308 Z M136.865741,28.05 L136.865741,8.19923077 L140.68287,8.19923077 L140.68287,28.05 L136.865741,28.05 Z M144.263889,18.1246154 C144.263889,12.24 148.671296,7.72846154 154.928241,7.72846154 C159.925926,7.72846154 162.405093,10.6315385 162.405093,10.6315385 L160.594907,13.2992308 C160.594907,13.2992308 158.469907,11.0238462 155.085648,11.0238462 C151.071759,11.0238462 148.159722,14.0053846 148.159722,18.0853846 C148.159722,22.1261538 151.071759,25.2253846 155.203704,25.2253846 C158.902778,25.2253846 161.342593,22.5576923 161.342593,22.5576923 L162.877315,25.3430769 C162.877315,25.3430769 160.122685,28.5207692 154.928241,28.5207692 C148.671296,28.5207692 144.263889,24.0876923 144.263889,18.1246154 Z M175.115741,28.05 L175.115741,0 L186.803241,0 C192.273148,0 195.972222,4.00153846 195.972222,9.65076923 C195.972222,15.3 192.273148,19.38 186.803241,19.38 L182.002315,19.38 L182.002315,28.05 L175.115741,28.05 Z M182.002315,13.4953846 L185.386574,13.4953846 C187.787037,13.4953846 188.967593,11.8869231 188.967593,9.65076923 C188.967593,7.41461538 187.787037,5.88461538 185.50463,5.88461538 L182.002315,5.88461538 L182.002315,13.4953846 Z M196.759259,22.0084615 C196.759259,16.1238462 205.377315,15.4569231 208.525463,15.4569231 L208.800926,15.4569231 L208.800926,15.1038462 C208.800926,13.4169231 207.502315,12.8676923 205.810185,12.8676923 C203.252315,12.8676923 200.340278,14.79 200.340278,14.79 L197.979167,10.0038462 C197.979167,10.0038462 201.481481,7.37538462 206.479167,7.37538462 C212.185185,7.37538462 215.608796,10.4746154 215.608796,15.6138462 L215.608796,28.05 L209.391204,28.05 L209.391204,26.8338462 C209.391204,26.1669231 209.469907,25.5784615 209.469907,25.5784615 L209.391204,25.5784615 C209.391204,25.5784615 207.895833,28.5207692 203.645833,28.5207692 C199.868056,28.5207692 196.759259,26.01 196.759259,22.0084615 Z M203.606481,21.6553846 C203.606481,22.5969231 204.196759,23.3423077 205.534722,23.3423077 C207.305556,23.3423077 208.87963,21.42 208.87963,19.7723077 L208.87963,19.3407692 L208.25,19.3407692 C206.085648,19.3407692 203.606481,19.9684615 203.606481,21.6553846 Z M216.868056,34.8761538 L219.032407,29.8938462 C219.032407,29.8938462 220.134259,30.6392308 221.118056,30.6392308 C222.219907,30.6392308 223.675926,30.3253846 224.384259,28.5992308 L224.777778,27.6576923 L216.159722,7.84615385 L223.872685,7.84615385 L226.863426,17.1438462 C227.217593,18.2423077 227.611111,20.2823077 227.611111,20.2823077 L227.689815,20.2823077 C227.689815,20.2823077 228.083333,18.36 228.358796,17.2615385 L230.916667,7.84615385 L238.354167,7.84615385 L230.050926,30.2076923 C228.358796,34.7192308 224.81713,36.2884615 221.590278,36.2884615 C218.914352,36.2884615 216.868056,34.8761538 216.868056,34.8761538 Z" id="name"></path>
                </g>
            </g>
        </g>
    </g>
</svg>