<?xml version="1.0" encoding="UTF-8"?>
<svg width="128px" height="128px" viewBox="0 0 128 128" version="1.1" xmlns="http://www.w3.org/2000/svg" xmlns:xlink="http://www.w3.org/1999/xlink">
    <title>Artboard</title>
    <g id="Artboard" stroke="none" stroke-width="1" fill="none" fill-rule="evenodd">
        <rect id="Rectangle" fill="#0A0F1D" x="0" y="0" width="128" height="128"></rect>
        <g id="Branding/Logo" transform="translate(19.000000, 19.000000)" fill="#FFB200">
            <path d="M45,0 C69.8528137,0 90,20.1471863 90,45 C90,69.8528137 69.8528137,90 45,90 C36.4131143,90 28.3879718,87.5948917 21.5614728,83.4215755 L30.6838028,67.5 L47.0294118,67.5 C59.4558186,67.5 69.5294118,57.4264069 69.5294118,45 C69.5294118,32.5735931 59.4558186,22.5 47.0294118,22.5 L38.8235294,22.5 C36.143324,22.5 33.9705882,24.6727358 33.9705882,27.3529412 C33.9705882,30.0331466 36.143324,32.2058824 38.8235294,32.2058824 L47.0294118,32.2058824 C54.0954078,32.2058824 59.8235294,37.9340039 59.8235294,45 C59.8235294,52.0659961 54.0954078,57.7941176 47.0294118,57.7941176 L29.3823529,57.7941176 C27.1202469,57.7941176 25.2196338,59.3418529 24.6817246,61.4360991 C24.6423411,61.549118 24.6068171,61.6644136 24.5753431,61.781876 L19.192497,81.8689444 C7.58695917,73.7302458 0,60.2511375 0,45 C0,20.1471863 20.1471863,0 45,0 Z M47.0294118,38.8235294 L35.4705882,38.8235294 C32.0594177,38.8235294 29.2941176,41.5888295 29.2941176,45 C29.2941176,48.4111705 32.0594177,51.1764706 35.4705882,51.1764706 L47.0294118,51.1764706 C50.4405823,51.1764706 53.2058824,48.4111705 53.2058824,45 C53.2058824,41.5888295 50.4405823,38.8235294 47.0294118,38.8235294 Z" id="logo"></path>
        </g>
    </g>
</svg>