<?xml version="1.0" encoding="UTF-8" standalone="no"?>
<svg
   xmlns:svg="http://www.w3.org/2000/svg"
   xmlns="http://www.w3.org/2000/svg"
   xmlns:sodipodi="http://sodipodi.sourceforge.net/DTD/sodipodi-0.dtd"
   xmlns:inkscape="http://www.inkscape.org/namespaces/inkscape"
   width="1024"
   height="1024"
   id="svg5582"
   version="1.1"
   inkscape:version="0.91 r13725"
   sodipodi:docname="ideal.svg">
  <defs
     id="defs5600" />
  <sodipodi:namedview
     pagecolor="#ffffff"
     bordercolor="#666666"
     borderopacity="1"
     objecttolerance="10"
     gridtolerance="10"
     guidetolerance="10"
     inkscape:pageopacity="0"
     inkscape:pageshadow="2"
     inkscape:window-width="1176"
     inkscape:window-height="613"
     id="namedview5598"
     showgrid="false"
     inkscape:zoom="0.23046875"
     inkscape:cx="101.9661"
     inkscape:cy="512"
     inkscape:window-x="40"
     inkscape:window-y="86"
     inkscape:window-maximized="0"
     inkscape:current-layer="svg5582" />
  <g
     id="g5590"
     transform="matrix(0.99902439,0,0,1,-9.7560976e-4,0)">
    <path
       d="M 528.48026,69.722113 C 959.62522,69.722113 1024,346.19903 1024,510.9678 c 0,285.87622 -175.96621,443.31009 -495.51974,443.31009 0,0 -518.04263,0 -528.48026,0 0,-10.4817 0,-874.102777 0,-884.555777 10.43763,0 528.48026,0 528.48026,0 m -486.87514,41.588737 0,801.36293 486.87411,0 c 293.9945,0 453.92794,-136.95385 453.92794,-401.70496 0,-272.07577 -173.36218,-399.65797 -453.92794,-399.65797 l -486.87411,0 z"
       id="path4884"
       inkscape:connector-curvature="0" />
    <rect
       x="106.92403"
       y="569.88983"
       width="155.86098"
       height="277.45996"
       id="rect4886" />
    <path
       d="m 281.69728,430.13939 c 0,53.49991 -43.34899,96.86836 -96.85504,96.86836 -53.48352,0 -96.87552,-43.36845 -96.87552,-96.86836 0,-53.46099 43.392,-96.86528 96.87552,-96.86528 53.50707,0 96.85504,43.40532 96.85504,96.86528"
       id="path4888"
       inkscape:connector-curvature="0" />
    <path
       fill="0"
       d="m 587.51386,475.46778 0,44.89625 -111.06612,0 0,-180.224 107.47392,0 0,44.87783 c 0,0 -38.25049,0 -62.57152,0 0,6.18496 0,13.28333 0,20.89165 l 59.18516,0 0,44.86553 -59.18618,0 c 0,9.01018 0,17.50323 0,24.69376 25.03168,-10e-4 66.16474,-10e-4 66.16474,-10e-4 m 21.56544,44.95565 54.36211,-180.35917 63.87405,0 54.34982,180.35917 -46.73024,0 -10.19085,-34.89895 -58.73049,0 -10.21236,34.89895 -46.72204,0 z m 70.04569,-79.75424 32.49255,0 -14.85415,-50.96346 -2.69209,0 -14.94631,50.96346 z m 125.10515,-100.59264 44.8809,0 c 0,0 0,102.35801 0,135.39123 9.96147,0 37.30432,0 66.5344,0 C 897.39571,229.79379 704.13824,176.71475 528.51405,176.71475 l -187.24455,0 0,163.45396 27.72276,0 c 50.52416,0 81.92102,34.26304 81.92102,89.38188 0,56.86887 -30.63808,90.81344 -81.92102,90.81344 l -27.72276,0 0,327.07072 187.24352,0 c 285.52602,0 384.90112,-132.61107 388.4073,-327.07072 l -112.6912,0 0,-180.28748 0.001,2e-5 z M 341.23981,385.0445 c 0,25.06547 0,65.38138 0,90.4233 13.72979,0 27.75347,0 27.75347,0 19.22662,0 36.98995,-5.55213 36.98995,-45.91719 0,-39.44755 -19.76627,-44.50611 -36.98995,-44.50611 0,0 -14.02368,0 -27.75347,0 z"
       id="path4890"
       inkscape:connector-curvature="0" />
  </g>
</svg>
