<?xml version="1.0" encoding="UTF-8" standalone="no"?>
<svg
   xmlns:dc="http://purl.org/dc/elements/1.1/"
   xmlns:cc="http://creativecommons.org/ns#"
   xmlns:rdf="http://www.w3.org/1999/02/22-rdf-syntax-ns#"
   xmlns:svg="http://www.w3.org/2000/svg"
   xmlns="http://www.w3.org/2000/svg"
   xmlns:sodipodi="http://sodipodi.sourceforge.net/DTD/sodipodi-0.dtd"
   xmlns:inkscape="http://www.inkscape.org/namespaces/inkscape"
   version="1.1"
   x="0px"
   y="0px"
   viewBox="0 0 1024 1024"
   style="fill:#000000"
   xml:space="preserve"
   id="svg3386"
   inkscape:version="0.91 r13725"
   sodipodi:docname="pay.svg"
   width="1024"
   height="1024"><metadata
     id="metadata3396"><rdf:RDF><cc:Work
         rdf:about=""><dc:format>image/svg+xml</dc:format><dc:type
           rdf:resource="http://purl.org/dc/dcmitype/StillImage" /><dc:title></dc:title></cc:Work></rdf:RDF></metadata><defs
     id="defs3394" /><sodipodi:namedview
     pagecolor="#ffffff"
     bordercolor="#666666"
     borderopacity="1"
     objecttolerance="10"
     gridtolerance="10"
     guidetolerance="10"
     inkscape:pageopacity="0"
     inkscape:pageshadow="2"
     inkscape:window-width="2560"
     inkscape:window-height="1351"
     id="namedview3392"
     showgrid="false"
     fit-margin-top="0"
     fit-margin-left="0"
     fit-margin-right="0"
     fit-margin-bottom="0"
     inkscape:zoom="1"
     inkscape:cx="251.3"
     inkscape:cy="567.97507"
     inkscape:window-x="0"
     inkscape:window-y="1"
     inkscape:window-maximized="1"
     inkscape:current-layer="svg3386" /><g
     id="g3388"
     transform="matrix(10.675007,0,0,10.675007,-21.75035,-21.883727)"><path
       d="m 80.9,17.5 -37.2,0 13.2,-13.2 c 3,-3 7.8,-3 10.7,0 l 13.3,13.2 z m -58.3,-4.8 0,4.8 14.2,0 12.4,-12.4 -19,0 c -4.2,0 -7.6,3.4 -7.6,7.6 z m 54.2,75.2 0,-4.9 -13.5,0 -12.3,12.3 18.4,0 c 4.1,0 7.4,-3.3 7.4,-7.4 z m -45.1,7.9 c 2.9,2.9 7.5,2.9 10.4,0 L 54.9,83 l -36,0 12.8,12.8 z m 43,-49.3 c -2.5,0 -4.6,2.1 -4.6,4.6 0,2.5 2.1,4.6 4.6,4.6 2.5,0 4.6,-2.1 4.6,-4.6 0,-2.5 -2.1,-4.6 -4.6,-4.6 z m -48.4,0 c -2.5,0 -4.6,2.1 -4.6,4.6 0,2.5 2.1,4.6 4.6,4.6 2.5,0 4.6,-2.1 4.6,-4.6 0,-2.5 -2,-4.6 -4.6,-4.6 z m 59.9,30.9 -72.4,0 C 9.6,77.4 6.2,74 6.2,69.8 l 0,-39 c 0,-4.2 3.4,-7.6 7.6,-7.6 l 72.4,0 c 4.2,0 7.6,3.4 7.6,7.6 l 0,39 c 0,4.2 -3.4,7.6 -7.6,7.6 z m 1.1,-38.5 c -0.6,0.2 -1.2,0.2 -1.9,0.2 -4.2,0 -7.7,-3.4 -7.7,-7.7 0,-0.6 0.1,-1.3 0.2,-1.9 l -56.3,0 c 0.1,0.5 0.1,0.9 0.1,1.4 0,4.2 -3.4,7.7 -7.7,7.7 -0.5,0 -0.9,0 -1.3,-0.1 l 0,23.3 c 0.4,-0.1 0.9,-0.1 1.3,-0.1 4.2,0 7.7,3.4 7.7,7.7 0,0.5 0,1 -0.1,1.4 l 56.2,0 c 0,-0.3 -0.1,-0.6 -0.1,-1 0,-4.2 3.4,-7.7 7.7,-7.7 0.7,0 1.3,0.1 1.9,0.2 l 0,-23.4 z M 67.1,50.3 C 67.1,59.5 59.7,67 50.5,67 41.3,67 33.9,59.5 33.9,50.3 c 0,-9.2 7.4,-16.7 16.6,-16.7 9.2,0 16.6,7.4 16.6,16.7 z m -10.4,7.3 c -0.2,-0.5 -0.4,-1 -0.7,-1.5 -0.2,-0.5 -0.5,-0.6 -1,-0.5 -0.6,0.1 -1.2,0.3 -1.9,0.5 -1.2,0.3 -2.4,0.3 -3.6,-0.1 -1.5,-0.5 -2.3,-1.6 -2.8,-3 l 4.1,0 c 0.3,0 0.6,-0.3 0.6,-0.6 l 0,-1.3 c 0,-0.3 -0.3,-0.6 -0.6,-0.6 l -4.5,0 c 0,-0.4 0,-0.7 0,-1 l 4.5,0 c 0.3,0 0.6,-0.3 0.6,-0.6 l 0,-1.3 C 51.4,47.3 51.1,47 50.8,47 L 47,47 c 0,0 0,0 0,0 0.5,-1.1 1.2,-1.9 2.3,-2.4 1.3,-0.5 2.6,-0.5 4,-0.2 0.6,0.1 1.3,0.3 1.9,0.5 0.5,0.1 0.7,0 0.9,-0.5 0.2,-0.5 0.4,-1 0.7,-1.5 0.2,-0.5 0.1,-0.8 -0.4,-1.1 -0.1,-0.1 -0.2,-0.1 -0.4,-0.2 -1.9,-0.7 -3.8,-1 -5.8,-0.7 -1.4,0.2 -2.7,0.7 -3.9,1.6 -1.4,1.1 -2.4,2.6 -2.9,4.3 l -0.1,0.2 -2,0 c -0.3,0 -0.6,0.3 -0.6,0.6 l 0,1.3 c 0,0.3 0.3,0.6 0.6,0.6 l 1.6,0 c 0,0.4 0,0.7 0,1 l -1.6,0 c -0.3,0 -0.6,0.3 -0.6,0.6 l 0,1.3 c 0,0.3 0.3,0.6 0.6,0.6 l 1.9,0 c 0.1,0.5 0.3,0.9 0.5,1.4 1,2.3 2.6,4 5,4.8 2,0.7 4,0.6 6.1,0.1 0.5,-0.1 1.1,-0.3 1.5,-0.6 0.5,-0.2 0.6,-0.6 0.4,-1.1 z"
       id="path3390"
       inkscape:connector-curvature="0" /></g></svg>