<?xml version="1.0" encoding="UTF-8" standalone="no"?>
<svg
   xmlns:svg="http://www.w3.org/2000/svg"
   xmlns="http://www.w3.org/2000/svg"
   xmlns:sodipodi="http://sodipodi.sourceforge.net/DTD/sodipodi-0.dtd"
   xmlns:inkscape="http://www.inkscape.org/namespaces/inkscape"
   width="1024"
   height="1024"
   id="svg7451"
   version="1.1"
   inkscape:version="0.91 r13725"
   sodipodi:docname="pronamic.svg">
  <sodipodi:namedview
     pagecolor="#ffffff"
     bordercolor="#666666"
     borderopacity="1"
     objecttolerance="10"
     gridtolerance="10"
     guidetolerance="10"
     inkscape:pageopacity="0"
     inkscape:pageshadow="2"
     inkscape:window-width="1440"
     inkscape:window-height="814"
     id="namedview7468"
     showgrid="false"
     inkscape:zoom="0.23046875"
     inkscape:cx="969.76271"
     inkscape:cy="224.95005"
     inkscape:window-x="0"
     inkscape:window-y="1"
     inkscape:window-maximized="1"
     inkscape:current-layer="svg7451" />
  <defs
     id="defs7454">
    <clipPath
       id="clipPath6789"
       clipPathUnits="userSpaceOnUse">
      <path
         id="path6791"
         d="m0,500l500,0l0,-500l-500,0l0,500z" />
    </clipPath>
  </defs>
  <g
     id="g7463">
    <title
       id="title7465">Layer 1</title>
    <path
       id="path6795"
       d="m641.101763,644.880413c114.806784,-2.166784 180.092928,-55.169024 180.092928,-140.673024c0,-141.983744 -159.698944,-222.37184 -461.856768,-232.476672l-23.179264,-0.811008l0,169.45152l110.944256,8.536064l0,-67.289088c158.539776,11.587584 267.395072,56.762368 267.395072,112.525312c0,39.38304 -51.142656,47.648768 -93.945856,47.648768c-77.1072,0 -124.387328,-3.784704 -179.167232,-8.224768c-24.952832,-2.015232 -50.991104,-4.13696 -81.42848,-5.951488l-23.79776,-1.4336l0,343.867392c-131.03104,-65.015808 -221.503488,-199.831552 -221.503488,-355.762176c0,-219.045888 178.23744,-397.344768 397.422592,-397.344768c219.0336,0 397.193216,178.29888 397.193216,397.344768c0,191.8976 -136.671232,352.39936 -317.693952,389.328896l0,115.8144c244.604928,-38.31808 432.422912,-249.933824 432.422912,-505.143296c0,-282.288128 -229.691392,-511.91808 -511.922176,-511.91808c-282.382336,0 -512.077824,229.629952 -512.077824,511.91808c0,260.231168 195.391488,475.209728 446.951424,507.342848l0,-346.308608l0.151552,0l0,-35.393536c29.282304,1.552384 79.11424,7.151616 193.998848,4.952064" />
  </g>
</svg>
