<?xml version="1.0" encoding="UTF-8" standalone="no"?>
<svg
   xmlns:dc="http://purl.org/dc/elements/1.1/"
   xmlns:cc="http://creativecommons.org/ns#"
   xmlns:rdf="http://www.w3.org/1999/02/22-rdf-syntax-ns#"
   xmlns:svg="http://www.w3.org/2000/svg"
   xmlns="http://www.w3.org/2000/svg"
   xmlns:sodipodi="http://sodipodi.sourceforge.net/DTD/sodipodi-0.dtd"
   xmlns:inkscape="http://www.inkscape.org/namespaces/inkscape"
   id="svg4261"
   version="1.1"
   inkscape:version="0.91 r13725"
   sodipodi:docname="status-failed.svg"
   width="1023.998"
   height="1023.998">
  <metadata
     id="metadata4269">
    <rdf:RDF>
      <cc:Work
         rdf:about="">
        <dc:format>image/svg+xml</dc:format>
        <dc:type
           rdf:resource="http://purl.org/dc/dcmitype/StillImage" />
        <dc:title></dc:title>
      </cc:Work>
    </rdf:RDF>
  </metadata>
  <defs
     id="defs4267" />
  <sodipodi:namedview
     pagecolor="#ffffff"
     bordercolor="#666666"
     borderopacity="1"
     objecttolerance="10"
     gridtolerance="10"
     guidetolerance="10"
     inkscape:pageopacity="0"
     inkscape:pageshadow="2"
     inkscape:window-width="1440"
     inkscape:window-height="814"
     id="namedview4265"
     showgrid="false"
     fit-margin-top="0"
     fit-margin-left="0"
     fit-margin-right="0"
     fit-margin-bottom="0"
     inkscape:zoom="1"
     inkscape:cx="508.98205"
     inkscape:cy="210"
     inkscape:window-x="0"
     inkscape:window-y="1"
     inkscape:window-maximized="1"
     inkscape:current-layer="svg4261" />
  <path
     d="M 511.999,0 C 581.53,0 647.9,14.222 711.11,41.086 c 63.21,26.864 116.938,63.21 162.765,109.037 45.827,45.827 82.173,99.556 109.037,162.765 26.864,63.209 41.086,129.58 41.086,199.111 0,69.531 -14.222,135.901 -41.086,199.111 -26.864,63.21 -63.21,116.938 -109.037,162.765 -45.827,45.827 -99.556,82.173 -162.765,109.037 -63.21,26.864 -129.58,41.086 -199.111,41.086 -69.531,0 -135.901,-14.222 -199.111,-41.086 C 249.678,956.048 195.95,919.702 150.123,873.875 104.296,828.048 67.95,774.319 41.086,711.11 14.222,647.901 0,581.53 0,511.999 0,442.468 14.222,376.098 41.086,312.888 67.95,249.678 104.296,195.95 150.123,150.123 195.95,104.296 249.679,67.95 312.888,41.086 376.098,12.642 442.468,0 511.999,0 Z m 72.691,598.914 22.123,-412.444 -189.63,0 22.123,412.444 145.383,0 z m -6.321,214.913 c 15.802,-14.222 23.704,-34.765 23.704,-61.63 0,-26.865 -7.901,-47.407 -23.704,-61.63 -15.802,-14.222 -37.926,-22.123 -67.951,-22.123 -30.025,0 -52.148,7.901 -67.951,22.123 -15.802,14.222 -23.704,34.765 -23.704,61.63 0,25.284 7.901,45.827 23.704,61.63 15.802,14.222 39.506,22.123 67.951,22.123 30.025,0 52.148,-6.321 67.951,-22.123 z"
     id="path4263"
     inkscape:connector-curvature="0" />
</svg>
