<svg width="440" height="440" xmlns="http://www.w3.org/2000/svg"><defs><linearGradient x1="0%" y1="50.002%" x2="100%" y2="50.002%" id="a"><stop stop-color="#231E5C" offset="0%"/><stop stop-color="#034EA2" offset="100%"/></linearGradient></defs><g fill="none" fill-rule="evenodd"><path fill="#FFB200" d="M0 0h440v440H0z"/><path d="M220.5 30C295.887 30 357 91.113 357 166.5S295.887 303 220.5 303c-26.047 0-50.39-7.295-71.097-19.955l27.671-48.295h49.582c37.693 0 68.25-30.557 68.25-68.25s-30.557-68.25-68.25-68.25h-24.891c-8.13 0-14.72 6.59-14.72 14.72s6.59 14.721 14.72 14.721h24.89c21.434 0 38.81 17.375 38.81 38.809 0 21.434-17.376 38.809-38.81 38.809h-53.529c-6.861 0-12.626 4.695-14.258 11.047-.12.343-.227.693-.323 1.049l-16.328 60.93C107.014 253.649 84 212.763 84 166.5 84 91.113 145.113 30 220.5 30zm6.156 117.765h-35.062c-10.347 0-18.735 8.388-18.735 18.735s8.388 18.735 18.735 18.735h35.062c10.347 0 18.735-8.388 18.735-18.735s-8.388-18.735-18.735-18.735z" fill="#1A1B46" fill-rule="nonzero"/><g transform="translate(324 333)"><rect fill="#FFF" width="76.365" height="76.292" rx="38.146"/><path d="M24.266 46.336a.556.556 0 0 1-.406-.174.556.556 0 0 1-.174-.406v-10.85l-3.106 2.388a.663.663 0 0 1-.348.116c-.186 0-.348-.092-.487-.278l-1.437-1.854a.69.69 0 0 1-.093-.348c0-.217.085-.387.255-.51l5.378-4.15a.907.907 0 0 1 .534-.162h3.06c.17 0 .313.054.429.162a.545.545 0 0 1 .174.417v15.07c0 .17-.058.308-.174.417a.605.605 0 0 1-.43.162h-3.175zm6.792 0a.556.556 0 0 1-.405-.174.556.556 0 0 1-.174-.406v-1.738c0-.464.193-.85.58-1.16l2.155-2.11a110.795 110.795 0 0 0 3.327-2.596c.75-.618 1.321-1.178 1.716-1.68.394-.503.59-.978.59-1.426 0-1.144-.571-1.716-1.715-1.716-.603 0-1.066.182-1.39.545-.325.363-.542.815-.65 1.356-.093.356-.355.533-.788.533h-3.06a.49.49 0 0 1-.36-.15.465.465 0 0 1-.15-.336 5.31 5.31 0 0 1 .846-2.77c.533-.828 1.279-1.484 2.237-1.971.958-.487 2.063-.73 3.315-.73 1.298 0 2.419.208 3.362.625.942.418 1.657 1.005 2.144 1.762.487.758.73 1.639.73 2.643a4.828 4.828 0 0 1-1.031 3.014c-.688.896-1.735 1.87-3.142 2.92l-1.924 1.925h5.866c.17 0 .309.054.417.162a.565.565 0 0 1 .162.418v2.48a.576.576 0 0 1-.58.58H31.059zm19.706-.765a.556.556 0 0 1-.406-.174.556.556 0 0 1-.174-.406v-4.196h-4.08a.556.556 0 0 1-.406-.174.556.556 0 0 1-.174-.405V38.43c0-.17.054-.313.163-.428a.545.545 0 0 1 .417-.174h4.08V33.77a.576.576 0 0 1 .58-.58h1.993c.17 0 .313.054.43.162a.545.545 0 0 1 .173.418v4.057h4.034c.17 0 .313.058.429.174a.583.583 0 0 1 .174.428v1.786c0 .17-.058.309-.174.417a.605.605 0 0 1-.429.162H53.36v4.196c0 .17-.058.31-.174.417a.605.605 0 0 1-.429.163h-1.993z" fill="#1A1B46" fill-rule="nonzero"/></g><g transform="translate(39 333)"><circle fill="#FFF" cx="38.5" cy="38.5" r="38.5"/><path d="M41.732 25.66c4.014 0 7.359 1.094 9.673 3.166 2.617 2.34 3.944 5.888 3.944 10.543 0 9.224-4.454 13.708-13.617 13.708h-18.23V25.66h18.23z" fill="#FFF" fill-rule="nonzero"/><path d="M31.627 36.532c0 1.817-1.463 3.29-3.267 3.29-1.804 0-3.267-1.473-3.267-3.29 0-1.816 1.463-3.289 3.267-3.289 1.804 0 3.267 1.473 3.267 3.29M25.306 50.909h5.835v-9.551h-5.835z" fill="#0A0B09"/><path d="M41.732 25.66c4.014 0 7.359 1.094 9.673 3.166 2.617 2.34 3.944 5.888 3.944 10.543 0 9.224-4.454 13.708-13.617 13.708h-18.23V25.66h18.23zm.392-2.1H21.416v31.617h20.708v-.006c4.524-.062 8.107-1.193 10.65-3.371 3.093-2.65 4.66-6.832 4.66-12.431 0-2.677-.412-5.078-1.225-7.137-.778-1.969-1.928-3.643-3.418-4.976-2.624-2.348-6.307-3.617-10.667-3.69v-.006z" fill="#0A0B09" fill-rule="nonzero"/><path d="M41.07 50.909h-7.335V28.117h7.335-.296c6.117 0 12.629 2.425 12.629 11.426 0 9.515-6.512 11.366-12.629 11.366h.296" fill="#B9215E"/><path d="M33.746 35.114v3.587h.819c.306 0 .527-.017.662-.051.178-.045.325-.12.443-.226.117-.106.213-.28.287-.522.074-.243.11-.574.11-.992 0-.419-.036-.74-.11-.964a1.239 1.239 0 0 0-.311-.525 1.044 1.044 0 0 0-.508-.255c-.153-.034-.452-.052-.9-.052h-.492zm-1.092-.92h1.998c.45 0 .794.035 1.03.104.318.094.59.26.817.5.226.24.399.532.517.88.118.346.177.773.177 1.282 0 .446-.055.831-.166 1.155a2.394 2.394 0 0 1-.58.958c-.19.185-.446.33-.768.433-.241.077-.564.115-.968.115h-2.057v-5.426z" fill="#FFFFFE" fill-rule="nonzero"/><path d="M34.645 34.281c.446 0 .788.034 1.016.1.299.088.559.246.772.47.216.229.384.513.498.846.115.337.174.763.174 1.264 0 .438-.055.82-.163 1.133-.13.38-.318.69-.558.922-.177.173-.423.31-.73.408-.232.073-.551.11-.949.11h-1.962v-5.253h1.902zm-2.207-.304v5.861h2.267c.43 0 .78-.042 1.041-.124.353-.113.64-.275.85-.48a2.61 2.61 0 0 0 .634-1.041c.119-.346.18-.76.18-1.232 0-.535-.065-.993-.191-1.363a2.588 2.588 0 0 0-.565-.955 2.021 2.021 0 0 0-.907-.553c-.26-.076-.62-.113-1.102-.113h-2.207z" fill="#FFFFFE" fill-rule="nonzero"/><path d="M34.154 35.144c.535 0 .762.027.859.049a.892.892 0 0 1 .434.22c.113.108.204.265.27.465.067.21.102.52.102.923 0 .405-.035.726-.104.954-.065.217-.146.371-.242.46a.859.859 0 0 1-.375.192c-.123.031-.332.047-.622.047h-.664v-3.31h.342zm-.635-.298v3.907h.957c.319 0 .545-.019.693-.057.198-.05.367-.138.5-.26.138-.126.245-.32.327-.593.078-.261.116-.602.116-1.042 0-.441-.038-.774-.117-1.017a1.402 1.402 0 0 0-.347-.59 1.178 1.178 0 0 0-.572-.293c-.163-.037-.465-.055-.922-.055h-.635z" fill="#FFFFFE" fill-rule="nonzero"/><path fill="#FFFFFE" d="M38.49 39.621v-5.426h4.003v.92H39.58v1.201h2.71v.92h-2.71v1.465h3.016v.92H38.49"/><path d="M42.4 34.281v.638h-3.002v1.535h2.793v.638h-2.793v1.804h3.11v.638h-3.93v-5.253h3.823zm-4.126-.304v5.861h4.539v-1.246h-3.11v-1.196h2.793V36.15h-2.793v-.927h3.003v-1.246h-4.432zM46.646 37.47l-.742-2.01-.727 2.01h1.47zm2.002 2.151h-1.183l-.47-1.231h-2.151l-.446 1.231h-1.153l2.092-5.426h1.158l2.153 5.426z" fill="#FFFFFE" fill-rule="nonzero"/><path d="M46.394 34.281l2.035 5.253h-.864l-.47-1.26H44.74l-.446 1.26h-.835l1.978-5.253h.957zm-1.159-.304l-2.206 5.861H44.5l.446-1.26h1.947l.47 1.26h1.501l-2.27-5.86h-1.359z" fill="#FFFFFE" fill-rule="nonzero"/><path d="M45.94 35.71l.543 1.442h-1.077l.533-1.442zm-.966 1.74h1.945l-.982-2.604-.963 2.605z" fill="#FFFFFE" fill-rule="nonzero"/><path fill="#FFFFFE" d="M49.513 39.621v-5.426h1.114v4.499h2.776v.927h-3.89"/><path d="M50.604 34.272v4.435h2.72v.62h-3.515v-5.055h.795zm-1.091-.295v5.644h4.106v-1.209h-2.72v-4.435h-1.386z" fill="#FFFFFE" fill-rule="nonzero"/></g><g transform="translate(134 333)"><circle fill="#FFF" cx="38.5" cy="38.5" r="38.5"/><path d="M38.219 19.909l-3.86 18.231h-4.666l3.86-18.231h4.666zM57.85 31.68l2.457-6.845 1.414 6.845h-3.87zm5.208 6.46h4.316L63.608 19.91h-3.983c-.896 0-1.652.526-1.987 1.337L50.636 38.14h4.9l.972-2.724h5.987l.564 2.724zm-12.18-5.953c.02-4.81-6.584-5.077-6.538-7.226.015-.654.63-1.35 1.98-1.527.667-.089 2.51-.157 4.6.815l.82-3.865c-1.124-.413-2.568-.809-4.366-.809-4.612 0-7.859 2.478-7.884 6.027-.031 2.625 2.316 4.089 4.085 4.962 1.818.893 2.427 1.466 2.42 2.265-.013 1.224-1.45 1.764-2.793 1.785-2.346.036-3.708-.641-4.792-1.153l-.845 3.996c1.089.505 3.102.947 5.188.968 4.903 0 8.11-2.446 8.125-6.238zM31.55 19.91L23.99 38.14h-4.933l-3.72-14.55c-.227-.896-.423-1.224-1.11-1.601-1.121-.616-2.974-1.193-4.603-1.551l.11-.53h7.94c1.012 0 1.923.68 2.153 1.859l1.965 10.55 4.856-12.408h4.902z" transform="translate(0 10.267)" fill="url(#a)"/></g><g transform="translate(229 333)"><circle fill="#FFF" cx="38.5" cy="38.5" r="38.5"/><g fill-rule="nonzero" fill="#35B454"><path d="M19.453 34.476h-7.266v2.346h4.775c.311 0 .519.26.519.52v4.119h-1.038a.521.521 0 0 1-.52-.522v-2.97H13.9a1.865 1.865 0 0 0-1.869 1.876v2.085c0 1.042.83 1.876 1.869 1.876h7.421v-7.454c0-1.042-.83-1.876-1.868-1.876zM28.328 41.46H27.29a.521.521 0 0 1-.52-.52v-6.464h-2.023a1.865 1.865 0 0 0-1.869 1.876v5.578c0 1.042.83 1.876 1.869 1.876h7.421v-13.24h-3.892l.052 10.895zM39.175 41.46h-1.038a.521.521 0 0 1-.52-.52v-6.464h-3.892v7.454c0 1.042.83 1.876 1.869 1.876h3.58v1.147h-5.293v2.71h7.318a1.865 1.865 0 0 0 1.868-1.876V34.476h-3.892v6.985zM52.046 34.476h-7.474v7.454c0 1.042.83 1.876 1.869 1.876h7.317v-2.345h-4.774a.521.521 0 0 1-.52-.522v-4.117h1.039c.311 0 .519.26.519.52v2.972h2.024a1.865 1.865 0 0 0 1.868-1.877v-2.085c0-1.042-.83-1.876-1.868-1.876zM62.893 34.476H55.47v9.33h3.893v-6.984h1.038c.311 0 .519.26.519.52v6.464h3.892v-7.454c-.052-1.042-.882-1.876-1.92-1.876z"/></g></g></g></svg>