<svg xmlns="http://www.w3.org/2000/svg" width="128" height="128"><g fill="none" fill-rule="evenodd"><path fill="#0A0F1D" d="M0 0h128v128H0z"/><path fill="#FFB200" d="M64 19c24.853 0 45 20.147 45 45s-20.147 45-45 45a44.79 44.79 0 0 1-23.439-6.578L49.684 86.5h16.345c12.427 0 22.5-10.074 22.5-22.5s-10.073-22.5-22.5-22.5h-8.205a4.853 4.853 0 0 0 0 9.706h8.205c7.066 0 12.795 5.728 12.795 12.794 0 7.066-5.729 12.794-12.795 12.794H48.382a4.855 4.855 0 0 0-4.7 3.642c-.04.113-.075.228-.107.346l-5.383 20.087C26.587 92.73 19 79.25 19 64c0-24.853 20.147-45 45-45Zm2.03 38.824H54.47a6.176 6.176 0 0 0 0 12.352h11.56a6.176 6.176 0 0 0 0-12.352Z"/></g></svg>