<?xml version="1.0" encoding="UTF-8" standalone="no"?>
<svg
   xmlns:dc="http://purl.org/dc/elements/1.1/"
   xmlns:cc="http://creativecommons.org/ns#"
   xmlns:rdf="http://www.w3.org/1999/02/22-rdf-syntax-ns#"
   xmlns:svg="http://www.w3.org/2000/svg"
   xmlns="http://www.w3.org/2000/svg"
   xmlns:sodipodi="http://sodipodi.sourceforge.net/DTD/sodipodi-0.dtd"
   xmlns:inkscape="http://www.inkscape.org/namespaces/inkscape"
   id="svg4667"
   version="1.1"
   inkscape:version="0.91 r13725"
   sodipodi:docname="status-pending.svg"
   width="1024"
   height="1024">
  <metadata
     id="metadata4675">
    <rdf:RDF>
      <cc:Work
         rdf:about="">
        <dc:format>image/svg+xml</dc:format>
        <dc:type
           rdf:resource="http://purl.org/dc/dcmitype/StillImage" />
        <dc:title></dc:title>
      </cc:Work>
    </rdf:RDF>
  </metadata>
  <defs
     id="defs4673" />
  <sodipodi:namedview
     pagecolor="#ffffff"
     bordercolor="#666666"
     borderopacity="1"
     objecttolerance="10"
     gridtolerance="10"
     guidetolerance="10"
     inkscape:pageopacity="0"
     inkscape:pageshadow="2"
     inkscape:window-width="1034"
     inkscape:window-height="617"
     id="namedview4671"
     showgrid="false"
     fit-margin-top="0"
     fit-margin-left="0"
     fit-margin-right="0"
     fit-margin-bottom="0"
     inkscape:zoom="2.36"
     inkscape:cx="50"
     inkscape:cy="236.44068"
     inkscape:window-x="20"
     inkscape:window-y="42"
     inkscape:window-maximized="0"
     inkscape:current-layer="svg4667" />
  <path
     d="M 512,1024 C 229.136,1024 0,794.864 0,512 0,229.136 229.136,0 512,0 c 282.864,0 512,229.136 512,512 0,282.864 -229.136,512 -512,512 z m -33.185,-575.21 0,0 c -3.16,3.16 -7.901,6.321 -14.222,11.062 -12.642,12.642 -18.963,28.444 -18.963,47.407 0,1.58 0,3.16 1.58,6.321 1.58,3.161 1.58,6.321 1.58,6.321 l 0,0 64.79,320.79 64.79,-320.79 L 780.642,306.568 478.815,448.79 Z"
     id="path4669"
     inkscape:connector-curvature="0" />
</svg>
