<svg xmlns="http://www.w3.org/2000/svg" width="80" height="80"><g fill="none"><g fill="#fff"><g><path d="M 50.08608,50.38128 C 59.05536,50.212 64.15584,46.0712 64.15584,39.3912 c 0,-11.09248 -12.47648,-17.3728 -36.08256,-18.16224 l -1.81088,-0.06336 0,13.2384 8.66752,0.66688 0,-5.25696 c 12.38592,0.90528 20.89024,4.43456 20.89024,8.79104 0,3.0768 -3.99552,3.72256 -7.33952,3.72256 -6.024,0 -9.71776,-0.29568 -13.99744,-0.64256 -1.94944,-0.15744 -3.98368,-0.3232 -6.3616,-0.46496 l -1.8592,-0.112 0,26.86464 C 16.0256,62.89328 8.95744,52.3608 8.95744,40.17872 c 0,-17.11296 13.9248,-31.04256 31.04864,-31.04256 17.112,0 31.03072,13.9296 31.03072,31.04256 0,14.992 -10.67744,27.5312 -24.81984,30.41632 l 0,9.048 C 65.32672,76.64944 80,60.11696 80,40.17872 80,18.12496 62.05536,0.18512 40.00608,0.18512 17.94496,0.18512 0,18.12496 0,40.17872 0,60.50928 15.26496,77.30448 34.91808,79.81488 l 0,-27.05536 0.01184,0 0,-2.76512 c 2.28768,0.12128 6.1808,0.55872 15.15616,0.38688" /></g></g></g></svg>
