<svg xmlns="http://www.w3.org/2000/svg" width="80" height="80"><path d="M50.086 50.381c8.97-.169 14.07-4.31 14.07-10.99 0-11.092-12.477-17.373-36.083-18.162l-1.81-.063v13.238l8.667.667v-5.257c12.386.905 20.89 4.434 20.89 8.791 0 3.077-3.995 3.723-7.34 3.723-6.023 0-9.717-.296-13.997-.643-1.95-.157-3.983-.323-6.361-.465l-1.86-.112v26.865C16.026 62.893 8.957 52.36 8.957 40.179c0-17.113 13.925-31.043 31.05-31.043 17.111 0 31.03 13.93 31.03 31.043 0 14.992-10.678 27.53-24.82 30.416v9.048C65.327 76.649 80 60.117 80 40.179 80 18.125 62.055.185 40.006.185 17.945.185 0 18.125 0 40.18c0 20.33 15.265 37.125 34.918 39.636V52.76h.012v-2.766c2.288.122 6.18.56 15.156.387" fill="#fff"/></svg>